<!DOCTYPE svg PUBLIC "-//W3C//DTD SVG 1.1//EN" "http://www.w3.org/Graphics/SVG/1.1/DTD/svg11.dtd">

<!-- Uploaded to: SVG Repo, www.svgrepo.com, Transformed by: SVG Repo Mixer Tools -->
<svg fill="white" version="1.1" id="Layer_1" xmlns="http://www.w3.org/2000/svg" xmlns:xlink="http://www.w3.org/1999/xlink" viewBox="0 0 512 512" xml:space="preserve" width="20px" height="20px">

<g id="SVGRepo_bgCarrier" stroke-width="0"/>

<g id="SVGRepo_tracerCarrier" stroke-linecap="round" stroke-linejoin="round"/>

<g id="SVGRepo_iconCarrier"> <g> <g> <rect x="114.759" y="229.517" width="35.31" height="35.31"/> </g> </g> <g> <g> <rect x="185.379" y="229.517" width="35.31" height="35.31"/> </g> </g> <g> <g> <rect x="256" y="229.517" width="35.31" height="35.31"/> </g> </g> <g> <g> <rect x="114.759" y="300.138" width="35.31" height="35.31"/> </g> </g> <g> <g> <rect x="185.379" y="300.138" width="35.31" height="35.31"/> </g> </g> <g> <g> <path d="M438.437,276.598c-17.776,0-27.205,1.714-35.527,3.227c-5.365,0.976-10.232,1.86-17.439,2.321V41.195h-76.506V0h-35.31 v41.195H132.414V0h-35.31v41.195H20.598v364.874h235.827c2.149,24.276,34.885,45.168,34.885,55.908 c0,27.583,22.44,50.023,50.023,50.023c12.333,0,23.637-4.484,32.368-11.913c8.731,7.428,20.035,11.913,32.368,11.913 c27.583,0,50.023-22.44,50.023-50.023c0-12.359,35.31-30.602,35.31-61.793v-70.621 C491.402,300.358,467.643,276.598,438.437,276.598z M55.908,76.506h41.195v19.791c-3.651,4.148-5.885,9.571-5.885,15.519 c0,12.98,10.56,23.54,23.54,23.54c12.98,0,23.54-10.56,23.54-23.54c0-5.947-2.234-11.37-5.885-15.519V76.506h141.241v19.791 c-3.651,4.148-5.885,9.571-5.885,15.519c0,12.98,10.56,23.54,23.54,23.54s23.54-10.56,23.54-23.54 c0-5.947-2.234-11.37-5.885-15.519V76.506h41.195v82.391H55.908V76.506z M256,329.563v41.195H55.908V194.207h294.253v86.61 c-1.911-0.31-23.419-4.22-41.195-4.22C279.759,276.598,256,300.358,256,329.563z M456.092,400.184 c0,12.8-35.31,30.602-35.31,61.793c0,8.113-6.599,14.713-14.713,14.713c-7.768,0-14.132-6.056-14.661-13.691v-51.045h-35.31 v50.023h-0.052c0,8.113-6.599,14.713-14.713,14.713c-8.113,0-14.713-6.599-14.713-14.713c0-30.897-35.31-49.582-35.31-61.793 v-70.621c0-9.735,7.92-17.655,17.655-17.655c26.483,0,33.103,5.885,64.736,5.885c31.338,0,36.34-5.885,64.736-5.885 c9.736,0,17.655,7.92,17.655,17.655V400.184z"/> </g> </g> </g>

</svg>