<!DOCTYPE svg PUBLIC "-//W3C//DTD SVG 1.1//EN" "http://www.w3.org/Graphics/SVG/1.1/DTD/svg11.dtd">

<!-- Uploaded to: SVG Repo, www.svgrepo.com, Transformed by: SVG Repo Mixer Tools -->
<svg fill="#ffffff" height="25px" width="25px" version="1.1" id="Layer_1" xmlns="http://www.w3.org/2000/svg" xmlns:xlink="http://www.w3.org/1999/xlink" viewBox="0 0 512 512" xml:space="preserve" stroke="#ffffff">

<g id="SVGRepo_bgCarrier" stroke-width="0"/>

<g id="SVGRepo_tracerCarrier" stroke-linecap="round" stroke-linejoin="round"/>

<g id="SVGRepo_iconCarrier"> <g> <g> <polygon points="414.297,331.27 366.703,378.862 346.785,358.945 317.432,388.298 366.703,437.57 443.649,360.622 "/> </g> </g> <g> <g> <path d="M447.78,267.621c5.387-11.938,8.869-24.885,8.869-39.297V89.946C456.649,40.35,416.3,0,366.703,0 c-27.789,0-52.677,12.67-69.189,32.533C281.001,12.67,256.113,0,228.324,0c-27.789,0-52.677,12.67-69.189,32.533 C142.622,12.67,117.735,0,89.946,0C40.348,0,0,40.35,0,89.946v138.378c0,62.616,69.189,101.189,69.189,145.297v41.513 c0,38.151,31.038,69.189,69.189,69.189c38.151,0,69.189-31.038,69.189-69.189v-34.595c0-11.445,9.312-20.757,20.757-20.757 s20.757,9.311,20.757,20.757c0,72.487,58.973,131.459,131.459,131.459S512,453.027,512,380.541 C512,332.608,486.208,290.592,447.78,267.621z M260.405,327.192c-9.377-5.66-20.353-8.921-32.08-8.921 c-34.336,0-62.27,27.934-62.27,62.27v34.595c0,15.26-12.417,27.676-27.676,27.676c-15.259,0-27.676-12.415-27.676-27.676v-41.513 c0-64.692-69.189-101.016-69.189-145.297V89.946c0-26.706,21.727-48.432,48.432-48.432c26.706,0,48.432,21.727,48.432,48.432 h41.514c0-26.706,21.727-48.432,48.432-48.432s48.432,21.727,48.432,48.432h41.513c0-26.706,21.727-48.432,48.432-48.432 c26.706,0,48.432,21.727,48.432,48.432v138.378c0,8.018-2.361,15.919-6.183,23.858c-9.152-2.024-18.658-3.101-28.412-3.101 C327.037,249.081,280.903,281.214,260.405,327.192z M380.541,470.487c-49.596,0-89.946-40.35-89.946-89.946 c0-49.596,40.35-89.946,89.946-89.946c49.596,0,89.946,40.35,89.946,89.946C470.487,430.137,430.137,470.487,380.541,470.487z"/> </g> </g> </g>

</svg>