{
  "accessors": [
    {
      "bufferView": 1,
      "componentType": 5126,
      "count": 4118,
      "max": [
        0.3436647951602936,
        -0.8353754878044128,
        0.24859344959259033
      ],
      "min": [
        -0.34362274408340454,
        -1.4613492488861084,
        -0.9662326574325562
      ],
      "type": "VEC3"
    },
    {
      "bufferView": 1,
      "byteOffset": 49416,
      "componentType": 5126,
      "count": 4118,
      "max": [
        0.9997950196266174,
        0.9999709129333496,
        0.9998775720596313
      ],
      "min": [
        -0.9997187852859497,
        -0.999800443649292,
        -0.9988412261009216
      ],
      "type": "VEC3"
    },
    {
      "bufferView": 2,
      "componentType": 5126,
      "count": 4118,
      "max": [
        0.7764706015586853,
        0.7686274647712708,
        0.7176470756530762,
        1.0
      ],
      "min": [
        0.7686274647712708,
        0.7607843279838562,
        0.7098039388656616,
        1.0
      ],
      "type": "VEC4"
    },
    {
      "bufferView": 0,
      "componentType": 5125,
      "count": 24696,
      "type": "SCALAR"
    },
    {
      "bufferView": 1,
      "byteOffset": 98832,
      "componentType": 5126,
      "count": 18060,
      "max": [
        2.374279022216797,
        -0.6670274138450623,
        0.006755760870873928
      ],
      "min": [
        -0.4922660291194916,
        -1.2583098411560059,
        -1.1104539632797241
      ],
      "type": "VEC3"
    },
    {
      "bufferView": 1,
      "byteOffset": 315552,
      "componentType": 5126,
      "count": 18060,
      "max": [
        0.9999131560325623,
        0.9999265670776367,
        0.9998108148574829
      ],
      "min": [
        -0.9999996423721313,
        -0.9995182752609253,
        -0.9993881583213806
      ],
      "type": "VEC3"
    },
    {
      "bufferView": 2,
      "byteOffset": 65888,
      "componentType": 5126,
      "count": 18060,
      "max": [
        1.0,
        0.4941176474094391,
        0.45490196347236633,
        1.0
      ],
      "min": [
        0.9921568632125854,
        0.47843137383461,
        0.4313725531101227,
        1.0
      ],
      "type": "VEC4"
    },
    {
      "bufferView": 0,
      "byteOffset": 98784,
      "componentType": 5125,
      "count": 108276,
      "type": "SCALAR"
    },
    {
      "bufferView": 1,
      "byteOffset": 532272,
      "componentType": 5126,
      "count": 7121,
      "max": [
        1.2760517597198486,
        -0.8173810839653015,
        0.20828348398208618
      ],
      "min": [
        0.5886132717132568,
        -1.397347331047058,
        -0.9616371393203735
      ],
      "type": "VEC3"
    },
    {
      "bufferView": 1,
      "byteOffset": 617724,
      "componentType": 5126,
      "count": 7121,
      "max": [
        0.9998893737792969,
        0.9998151063919067,
        0.9998963475227356
      ],
      "min": [
        -0.9999141097068787,
        -0.999708354473114,
        -0.9991537928581238
      ],
      "type": "VEC3"
    },
    {
      "bufferView": 2,
      "byteOffset": 354848,
      "componentType": 5126,
      "count": 7121,
      "max": [
        0.7764706015586853,
        0.7686274647712708,
        0.7176470756530762,
        1.0
      ],
      "min": [
        0.7686274647712708,
        0.7607843279838562,
        0.7098039388656616,
        1.0
      ],
      "type": "VEC4"
    },
    {
      "bufferView": 0,
      "byteOffset": 531888,
      "componentType": 5125,
      "count": 42726,
      "type": "SCALAR"
    },
    {
      "bufferView": 1,
      "byteOffset": 703176,
      "componentType": 5126,
      "count": 2483,
      "max": [
        2.2243144512176514,
        -0.7367307543754578,
        0.24841517210006714
      ],
      "min": [
        1.5367275476455688,
        -1.4617202281951904,
        -0.8664641976356506
      ],
      "type": "VEC3"
    },
    {
      "bufferView": 1,
      "byteOffset": 732972,
      "componentType": 5126,
      "count": 2483,
      "max": [
        0.9996825456619263,
        0.9949435591697693,
        0.9999908804893494
      ],
      "min": [
        -0.9998518228530884,
        -0.9995406866073608,
        -0.9996818900108337
      ],
      "type": "VEC3"
    },
    {
      "bufferView": 2,
      "byteOffset": 468784,
      "componentType": 5126,
      "count": 2483,
      "max": [
        0.7764706015586853,
        0.7686274647712708,
        0.7176470756530762,
        1.0
      ],
      "min": [
        0.7686274647712708,
        0.7607843279838562,
        0.7098039388656616,
        1.0
      ],
      "type": "VEC4"
    },
    {
      "bufferView": 0,
      "byteOffset": 702792,
      "componentType": 5125,
      "count": 14862,
      "type": "SCALAR"
    },
    {
      "bufferView": 1,
      "byteOffset": 762768,
      "componentType": 5126,
      "count": 3596,
      "max": [
        1.2444477081298828,
        -0.8170015811920166,
        0.08877727389335632
      ],
      "min": [
        0.6162779927253723,
        -1.3798558712005615,
        -0.9223538637161255
      ],
      "type": "VEC3"
    },
    {
      "bufferView": 1,
      "byteOffset": 805920,
      "componentType": 5126,
      "count": 3596,
      "max": [
        0.9998165965080261,
        0.9994001984596252,
        0.9999802708625793
      ],
      "min": [
        -0.9995985627174377,
        -0.9997627139091492,
        -0.9917235970497131
      ],
      "type": "VEC3"
    },
    {
      "bufferView": 2,
      "byteOffset": 508512,
      "componentType": 5126,
      "count": 3596,
      "max": [
        1.0,
        0.4901960790157318,
        0.45098039507865906,
        1.0
      ],
      "min": [
        0.9960784316062927,
        0.48627451062202454,
        0.4431372582912445,
        1.0
      ],
      "type": "VEC4"
    },
    {
      "bufferView": 0,
      "byteOffset": 762240,
      "componentType": 5125,
      "count": 21564,
      "type": "SCALAR"
    },
    {
      "bufferView": 1,
      "byteOffset": 849072,
      "componentType": 5126,
      "count": 1169,
      "max": [
        1.1139951944351196,
        -0.9970910549163818,
        -0.13826121389865875
      ],
      "min": [
        0.7467187643051147,
        -1.2713838815689087,
        -0.6172493100166321
      ],
      "type": "VEC3"
    },
    {
      "bufferView": 1,
      "byteOffset": 863100,
      "componentType": 5126,
      "count": 1169,
      "max": [
        0.9991432428359985,
        0.999532163143158,
        0.999464213848114
      ],
      "min": [
        -0.9997349977493286,
        -0.9983265399932861,
        -0.9999973773956299
      ],
      "type": "VEC3"
    },
    {
      "bufferView": 2,
      "byteOffset": 566048,
      "componentType": 5126,
      "count": 1169,
      "max": [
        0.572549045085907,
        0.04313725605607033,
        0.007843137718737125,
        1.0
      ],
      "min": [
        0.5647059082984924,
        0.03921568766236305,
        0.003921568859368563,
        1.0
      ],
      "type": "VEC4"
    },
    {
      "bufferView": 0,
      "byteOffset": 848496,
      "componentType": 5125,
      "count": 6990,
      "type": "SCALAR"
    },
    {
      "bufferView": 1,
      "byteOffset": 877128,
      "componentType": 5126,
      "count": 15671,
      "max": [
        1.2309486865997314,
        -0.7281297445297241,
        -0.1825423240661621
      ],
      "min": [
        -0.3981199562549591,
        -1.2740874290466309,
        -1.1337194442749023
      ],
      "type": "VEC3"
    },
    {
      "bufferView": 1,
      "byteOffset": 1065180,
      "componentType": 5126,
      "count": 15671,
      "max": [
        0.9999900460243225,
        1.0,
        0.999989926815033
      ],
      "min": [
        -0.9999536871910095,
        -0.9999578595161438,
        -1.0
      ],
      "type": "VEC3"
    },
    {
      "bufferView": 2,
      "byteOffset": 584752,
      "componentType": 5126,
      "count": 15671,
      "max": [
        0.9725490212440491,
        0.6549019813537598,
        0.9686274528503418,
        1.0
      ],
      "min": [
        0.21960784494876862,
        0.2549019753932953,
        0.1764705926179886,
        1.0
      ],
      "type": "VEC4"
    },
    {
      "bufferView": 0,
      "byteOffset": 876456,
      "componentType": 5125,
      "count": 94512,
      "type": "SCALAR"
    },
    {
      "bufferView": 1,
      "byteOffset": 1253232,
      "componentType": 5126,
      "count": 2092,
      "max": [
        2.059389352798462,
        -0.7030604481697083,
        -0.2544839382171631
      ],
      "min": [
        1.6946985721588135,
        -1.2065707445144653,
        -0.9482913017272949
      ],
      "type": "VEC3"
    },
    {
      "bufferView": 1,
      "byteOffset": 1278336,
      "componentType": 5126,
      "count": 2092,
      "max": [
        0.9999676942825317,
        0.9986407160758972,
        0.9998123645782471
      ],
      "min": [
        -0.9992983937263489,
        -0.9989160895347595,
        -0.999737560749054
      ],
      "type": "VEC3"
    },
    {
      "bufferView": 2,
      "byteOffset": 835488,
      "componentType": 5126,
      "count": 2092,
      "max": [
        0.772549033164978,
        0.7686274647712708,
        0.7176470756530762,
        1.0
      ],
      "min": [
        0.7647058963775635,
        0.7607843279838562,
        0.7098039388656616,
        1.0
      ],
      "type": "VEC4"
    },
    {
      "bufferView": 0,
      "byteOffset": 1254504,
      "componentType": 5125,
      "count": 12540,
      "type": "SCALAR"
    },
    {
      "bufferView": 1,
      "byteOffset": 1303440,
      "componentType": 5126,
      "count": 8266,
      "max": [
        2.372408866882324,
        -0.6437661051750183,
        -0.48354828357696533
      ],
      "min": [
        -0.47061026096343994,
        -1.0387628078460693,
        -1.1444063186645508
      ],
      "type": "VEC3"
    },
    {
      "bufferView": 1,
      "byteOffset": 1402632,
      "componentType": 5126,
      "count": 8266,
      "max": [
        0.999760627746582,
        0.9999920725822449,
        0.9993365406990051
      ],
      "min": [
        -0.9998440742492676,
        -0.9998296499252319,
        -0.9997223615646362
      ],
      "type": "VEC3"
    },
    {
      "bufferView": 2,
      "byteOffset": 868960,
      "componentType": 5126,
      "count": 8266,
      "max": [
        0.8901960849761963,
        0.7843137383460999,
        0.6666666865348816,
        1.0
      ],
      "min": [
        0.8784313797950745,
        0.7843137383460999,
        0.6549019813537598,
        1.0
      ],
      "type": "VEC4"
    },
    {
      "bufferView": 0,
      "byteOffset": 1304664,
      "componentType": 5125,
      "count": 49548,
      "type": "SCALAR"
    }
  ],
  "asset": {
    "extras": {
      "author": "alecz1k (https://sketchfab.com/alecz1k)",
      "license": "CC-BY-4.0 (http://creativecommons.org/licenses/by/4.0/)",
      "source": "https://sketchfab.com/3d-models/teeth-e9ca8b835d554860bd6757cd44905f1f",
      "title": "Teeth"
    },
    "generator": "Sketchfab-12.68.0",
    "version": "2.0"
  },
  "bufferViews": [
    {
      "buffer": 0,
      "byteLength": 1502856,
      "name": "floatBufferViews",
      "target": 34963
    },
    {
      "buffer": 0,
      "byteLength": 1501824,
      "byteOffset": 1502856,
      "byteStride": 12,
      "name": "floatBufferViews",
      "target": 34962
    },
    {
      "buffer": 0,
      "byteLength": 1001216,
      "byteOffset": 3004680,
      "byteStride": 16,
      "name": "floatBufferViews",
      "target": 34962
    }
  ],
  "buffers": [
    {
      "byteLength": 4005896,
      "uri": "scene.bin"
    }
  ],
  "extensionsRequired": [
    "KHR_materials_pbrSpecularGlossiness"
  ],
  "extensionsUsed": [
    "KHR_materials_pbrSpecularGlossiness"
  ],
  "materials": [
    {
      "doubleSided": true,
      "extensions": {
        "KHR_materials_pbrSpecularGlossiness": {
          "diffuseFactor": [
            0.901153084616991,
            0.901153084616991,
            0.901153084616991,
            1.0
          ],
          "glossinessFactor": 0.06111106632640528,
          "specularFactor": [
            0.0,
            0.0,
            0.0
          ]
        }
      },
      "name": "Scene_-_Root"
    }
  ],
  "meshes": [
    {
      "name": "Layer_1__0",
      "primitives": [
        {
          "attributes": {
            "COLOR_0": 2,
            "NORMAL": 1,
            "POSITION": 0
          },
          "indices": 3,
          "material": 0,
          "mode": 4
        }
      ]
    },
    {
      "name": "Layer_2__0",
      "primitives": [
        {
          "attributes": {
            "COLOR_0": 6,
            "NORMAL": 5,
            "POSITION": 4
          },
          "indices": 7,
          "material": 0,
          "mode": 4
        }
      ]
    },
    {
      "name": "Layer_5__0",
      "primitives": [
        {
          "attributes": {
            "COLOR_0": 10,
            "NORMAL": 9,
            "POSITION": 8
          },
          "indices": 11,
          "material": 0,
          "mode": 4
        }
      ]
    },
    {
      "name": "Layer_6__0",
      "primitives": [
        {
          "attributes": {
            "COLOR_0": 14,
            "NORMAL": 13,
            "POSITION": 12
          },
          "indices": 15,
          "material": 0,
          "mode": 4
        }
      ]
    },
    {
      "name": "Layer_7__0",
      "primitives": [
        {
          "attributes": {
            "COLOR_0": 18,
            "NORMAL": 17,
            "POSITION": 16
          },
          "indices": 19,
          "material": 0,
          "mode": 4
        }
      ]
    },
    {
      "name": "Layer_8__0",
      "primitives": [
        {
          "attributes": {
            "COLOR_0": 22,
            "NORMAL": 21,
            "POSITION": 20
          },
          "indices": 23,
          "material": 0,
          "mode": 4
        }
      ]
    },
    {
      "name": "Layer_9__0",
      "primitives": [
        {
          "attributes": {
            "COLOR_0": 26,
            "NORMAL": 25,
            "POSITION": 24
          },
          "indices": 27,
          "material": 0,
          "mode": 4
        }
      ]
    },
    {
      "name": "Layer_10__0",
      "primitives": [
        {
          "attributes": {
            "COLOR_0": 30,
            "NORMAL": 29,
            "POSITION": 28
          },
          "indices": 31,
          "material": 0,
          "mode": 4
        }
      ]
    },
    {
      "name": "Layer_11__0",
      "primitives": [
        {
          "attributes": {
            "COLOR_0": 34,
            "NORMAL": 33,
            "POSITION": 32
          },
          "indices": 35,
          "material": 0,
          "mode": 4
        }
      ]
    }
  ],
  "nodes": [
    {
      "children": [
        1
      ],
      "matrix": [
        0.9997585415840149,
        0.009007933549582953,
        0.020042553544044498,
        0.0,
        -0.021775195375084877,
        0.5284851193428037,
        0.8486632704734803,
        0.0,
        -0.0029474887996912003,
        -0.848894774913788,
        0.5285536646842954,
        0.0,
        0.024471072480082512,
        0.2632999122142797,
        -2.201768636703491,
        1.0
      ],
      "name": "Sketchfab_model"
    },
    {
      "children": [
        2
      ],
      "matrix": [
        1.0,
        0.0,
        0.0,
        0.0,
        0.0,
        -1.0,
        0.0,
        0.0,
        0.0,
        0.0,
        -1.0,
        0.0,
        0.0,
        0.0,
        0.0,
        1.0
      ],
      "name": "9fabfe2962e2451fbf95e2fd6d1e0599.fbx"
    },
    {
      "children": [
        3,
        5,
        7,
        9,
        11,
        13,
        15,
        17,
        19
      ],
      "name": "RootNode"
    },
    {
      "children": [
        4
      ],
      "name": "Layer_1"
    },
    {
      "mesh": 0,
      "name": "Layer_1__0"
    },
    {
      "children": [
        6
      ],
      "name": "Layer_2"
    },
    {
      "mesh": 1,
      "name": "Layer_2__0"
    },
    {
      "children": [
        8
      ],
      "name": "Layer_5"
    },
    {
      "mesh": 2,
      "name": "Layer_5__0"
    },
    {
      "children": [
        10
      ],
      "name": "Layer_6"
    },
    {
      "mesh": 3,
      "name": "Layer_6__0"
    },
    {
      "children": [
        12
      ],
      "name": "Layer_7"
    },
    {
      "mesh": 4,
      "name": "Layer_7__0"
    },
    {
      "children": [
        14
      ],
      "name": "Layer_8"
    },
    {
      "mesh": 5,
      "name": "Layer_8__0"
    },
    {
      "children": [
        16
      ],
      "name": "Layer_9"
    },
    {
      "mesh": 6,
      "name": "Layer_9__0"
    },
    {
      "children": [
        18
      ],
      "name": "Layer_10"
    },
    {
      "mesh": 7,
      "name": "Layer_10__0"
    },
    {
      "children": [
        20
      ],
      "name": "Layer_11"
    },
    {
      "mesh": 8,
      "name": "Layer_11__0"
    }
  ],
  "scene": 0,
  "scenes": [
    {
      "name": "Sketchfab_Scene",
      "nodes": [
        0
      ]
    }
  ]
}
