<svg xmlns="http://www.w3.org/2000/svg" xmlns:xlink="http://www.w3.org/1999/xlink" width="25" zoomAndPan="magnify" viewBox="0 0 30 30.000001" height="40" preserveAspectRatio="xMidYMid meet" version="1.0"><defs><g/><clipPath id="e4d7540774"><path d="M 0.484375 3.660156 L 29.515625 3.660156 L 29.515625 26.886719 L 0.484375 26.886719 Z M 0.484375 3.660156 " clip-rule="nonzero"/></clipPath></defs><g clip-path="url(#e4d7540774)"><path fill="#aab4c4" d="M 0.628906 6.679688 L 0.628906 18.175781 C 0.628906 18.558594 0.699219 18.925781 0.847656 19.277344 C 0.992188 19.628906 1.199219 19.941406 1.46875 20.210938 C 1.738281 20.480469 2.050781 20.6875 2.402344 20.832031 C 2.753906 20.980469 3.121094 21.050781 3.503906 21.050781 L 12.125 21.050781 L 15 26.800781 L 17.875 21.050781 L 26.496094 21.050781 C 26.878906 21.050781 27.246094 20.980469 27.597656 20.832031 C 27.949219 20.6875 28.261719 20.480469 28.53125 20.210938 C 28.800781 19.941406 29.007812 19.628906 29.152344 19.277344 C 29.300781 18.925781 29.371094 18.558594 29.371094 18.175781 L 29.371094 6.679688 C 29.371094 6.296875 29.300781 5.933594 29.152344 5.578125 C 29.007812 5.226562 28.800781 4.917969 28.53125 4.648438 C 28.261719 4.378906 27.949219 4.167969 27.597656 4.023438 C 27.246094 3.878906 26.878906 3.804688 26.496094 3.804688 L 3.503906 3.804688 C 3.121094 3.804688 2.753906 3.878906 2.402344 4.023438 C 2.050781 4.167969 1.738281 4.378906 1.46875 4.648438 C 1.199219 4.917969 0.992188 5.226562 0.847656 5.578125 C 0.699219 5.933594 0.628906 6.296875 0.628906 6.679688 Z M 0.628906 6.679688 " fill-opacity="1" fill-rule="nonzero"/><path fill="#aab4c4" d="M 15 26.945312 C 14.941406 26.945312 14.898438 26.917969 14.875 26.863281 L 12.039062 21.195312 L 3.503906 21.195312 C 3.101562 21.195312 2.71875 21.117188 2.347656 20.964844 C 1.980469 20.808594 1.652344 20.59375 1.371094 20.308594 C 1.085938 20.027344 0.867188 19.699219 0.714844 19.332031 C 0.5625 18.960938 0.484375 18.578125 0.484375 18.175781 L 0.484375 6.679688 C 0.484375 6.28125 0.5625 5.894531 0.714844 5.527344 C 0.867188 5.15625 1.085938 4.828125 1.371094 4.546875 C 1.652344 4.265625 1.980469 4.046875 2.347656 3.894531 C 2.71875 3.738281 3.101562 3.664062 3.503906 3.660156 L 26.496094 3.660156 C 26.898438 3.664062 27.28125 3.738281 27.652344 3.894531 C 28.019531 4.046875 28.347656 4.265625 28.628906 4.546875 C 28.914062 4.828125 29.132812 5.15625 29.285156 5.527344 C 29.4375 5.894531 29.515625 6.28125 29.515625 6.679688 L 29.515625 18.175781 C 29.515625 18.578125 29.4375 18.960938 29.285156 19.332031 C 29.132812 19.699219 28.914062 20.027344 28.628906 20.308594 C 28.347656 20.59375 28.019531 20.808594 27.652344 20.964844 C 27.28125 21.117188 26.898438 21.195312 26.496094 21.195312 L 17.960938 21.195312 L 15.125 26.863281 C 15.101562 26.917969 15.058594 26.945312 15 26.945312 Z M 3.503906 3.949219 C 3.140625 3.949219 2.792969 4.019531 2.457031 4.15625 C 2.121094 4.296875 1.828125 4.492188 1.570312 4.75 C 1.316406 5.003906 1.117188 5.300781 0.980469 5.632812 C 0.839844 5.96875 0.773438 6.316406 0.773438 6.679688 L 0.773438 18.175781 C 0.773438 18.539062 0.839844 18.886719 0.980469 19.222656 C 1.117188 19.554688 1.316406 19.851562 1.570312 20.109375 C 1.828125 20.363281 2.121094 20.5625 2.457031 20.699219 C 2.792969 20.839844 3.140625 20.90625 3.503906 20.90625 L 12.125 20.90625 C 12.183594 20.90625 12.226562 20.933594 12.253906 20.988281 L 15 26.476562 L 17.746094 20.988281 C 17.773438 20.933594 17.816406 20.90625 17.875 20.90625 L 26.496094 20.90625 C 26.859375 20.90625 27.207031 20.839844 27.542969 20.699219 C 27.878906 20.5625 28.171875 20.363281 28.429688 20.109375 C 28.683594 19.851562 28.882812 19.554688 29.019531 19.222656 C 29.160156 18.886719 29.226562 18.539062 29.226562 18.175781 L 29.226562 6.679688 C 29.226562 6.316406 29.160156 5.96875 29.019531 5.632812 C 28.882812 5.300781 28.683594 5.003906 28.429688 4.75 C 28.171875 4.492188 27.878906 4.296875 27.542969 4.15625 C 27.207031 4.019531 26.859375 3.949219 26.496094 3.949219 Z M 3.503906 3.949219 " fill-opacity="1" fill-rule="nonzero"/></g><g fill="#ffffff" fill-opacity="1"><g transform="translate(1.493195, 15.399016)"><g><path d="M 1.3125 0 C 0.925781 0 0.734375 -0.191406 0.734375 -0.578125 L 0.734375 -6.703125 C 0.734375 -7.078125 0.925781 -7.265625 1.3125 -7.265625 L 3.796875 -7.265625 C 4.390625 -7.265625 4.878906 -7.109375 5.265625 -6.796875 C 5.648438 -6.484375 5.84375 -6.03125 5.84375 -5.4375 C 5.84375 -5.007812 5.75 -4.65625 5.5625 -4.375 C 5.375 -4.09375 5.132812 -3.90625 4.84375 -3.8125 C 5.21875 -3.738281 5.53125 -3.535156 5.78125 -3.203125 C 6.03125 -2.867188 6.15625 -2.457031 6.15625 -1.96875 C 6.15625 -1.289062 5.953125 -0.789062 5.546875 -0.46875 C 5.148438 -0.15625 4.601562 0 3.90625 0 Z M 1.9375 -1.109375 L 3.734375 -1.109375 C 4.117188 -1.109375 4.398438 -1.1875 4.578125 -1.34375 C 4.765625 -1.507812 4.859375 -1.769531 4.859375 -2.125 C 4.859375 -2.46875 4.75 -2.722656 4.53125 -2.890625 C 4.320312 -3.054688 4.054688 -3.140625 3.734375 -3.140625 L 1.9375 -3.140625 Z M 1.9375 -4.265625 L 3.578125 -4.265625 C 3.898438 -4.265625 4.140625 -4.351562 4.296875 -4.53125 C 4.460938 -4.707031 4.546875 -4.945312 4.546875 -5.25 C 4.546875 -5.550781 4.457031 -5.773438 4.28125 -5.921875 C 4.113281 -6.078125 3.875 -6.15625 3.5625 -6.15625 L 1.9375 -6.15625 Z M 1.9375 -4.265625 "/></g></g></g><g fill="#ffffff" fill-opacity="1"><g transform="translate(8.113521, 15.399016)"><g><path d="M 1.34375 0 C 0.9375 0 0.734375 -0.203125 0.734375 -0.609375 L 0.734375 -6.65625 C 0.734375 -7.0625 0.929688 -7.265625 1.328125 -7.265625 C 1.734375 -7.265625 1.9375 -7.0625 1.9375 -6.65625 L 1.9375 -1.109375 L 5.109375 -1.109375 C 5.515625 -1.109375 5.71875 -0.925781 5.71875 -0.5625 C 5.71875 -0.1875 5.515625 0 5.109375 0 Z M 1.34375 0 "/></g></g></g><g fill="#ffffff" fill-opacity="1"><g transform="translate(14.02823, 15.399016)"><g><path d="M 3.78125 0.171875 C 3.125 0.171875 2.535156 0.015625 2.015625 -0.296875 C 1.503906 -0.609375 1.101562 -1.050781 0.8125 -1.625 C 0.519531 -2.195312 0.375 -2.867188 0.375 -3.640625 C 0.375 -4.410156 0.519531 -5.082031 0.8125 -5.65625 C 1.101562 -6.226562 1.503906 -6.671875 2.015625 -6.984375 C 2.535156 -7.296875 3.125 -7.453125 3.78125 -7.453125 C 4.4375 -7.453125 5.019531 -7.296875 5.53125 -6.984375 C 6.039062 -6.671875 6.441406 -6.226562 6.734375 -5.65625 C 7.035156 -5.082031 7.1875 -4.410156 7.1875 -3.640625 C 7.1875 -2.867188 7.035156 -2.195312 6.734375 -1.625 C 6.441406 -1.050781 6.039062 -0.609375 5.53125 -0.296875 C 5.019531 0.015625 4.4375 0.171875 3.78125 0.171875 Z M 3.78125 -1 C 4.21875 -1 4.59375 -1.109375 4.90625 -1.328125 C 5.226562 -1.546875 5.476562 -1.851562 5.65625 -2.25 C 5.832031 -2.644531 5.921875 -3.109375 5.921875 -3.640625 C 5.921875 -4.171875 5.832031 -4.632812 5.65625 -5.03125 C 5.476562 -5.425781 5.226562 -5.734375 4.90625 -5.953125 C 4.59375 -6.171875 4.21875 -6.28125 3.78125 -6.28125 C 3.351562 -6.28125 2.972656 -6.171875 2.640625 -5.953125 C 2.316406 -5.734375 2.066406 -5.425781 1.890625 -5.03125 C 1.710938 -4.632812 1.625 -4.171875 1.625 -3.640625 C 1.625 -3.109375 1.710938 -2.644531 1.890625 -2.25 C 2.066406 -1.851562 2.316406 -1.546875 2.640625 -1.328125 C 2.972656 -1.109375 3.351562 -1 3.78125 -1 Z M 3.78125 -1 "/></g></g></g><g fill="#ffffff" fill-opacity="1"><g transform="translate(21.572083, 15.399016)"><g><path d="M 3.75 0.171875 C 3.09375 0.171875 2.507812 0.015625 2 -0.296875 C 1.488281 -0.609375 1.085938 -1.050781 0.796875 -1.625 C 0.515625 -2.195312 0.375 -2.867188 0.375 -3.640625 C 0.375 -4.410156 0.515625 -5.082031 0.796875 -5.65625 C 1.085938 -6.226562 1.488281 -6.671875 2 -6.984375 C 2.507812 -7.296875 3.09375 -7.453125 3.75 -7.453125 C 4.15625 -7.453125 4.539062 -7.394531 4.90625 -7.28125 C 5.28125 -7.175781 5.609375 -7.019531 5.890625 -6.8125 C 6.054688 -6.707031 6.144531 -6.578125 6.15625 -6.421875 C 6.164062 -6.273438 6.113281 -6.125 6 -5.96875 C 5.875 -5.820312 5.738281 -5.742188 5.59375 -5.734375 C 5.457031 -5.722656 5.304688 -5.769531 5.140625 -5.875 C 4.953125 -6 4.738281 -6.097656 4.5 -6.171875 C 4.257812 -6.242188 4.007812 -6.28125 3.75 -6.28125 C 3.3125 -6.28125 2.9375 -6.171875 2.625 -5.953125 C 2.3125 -5.734375 2.066406 -5.421875 1.890625 -5.015625 C 1.710938 -4.617188 1.625 -4.160156 1.625 -3.640625 C 1.625 -3.117188 1.710938 -2.65625 1.890625 -2.25 C 2.066406 -1.851562 2.3125 -1.546875 2.625 -1.328125 C 2.9375 -1.109375 3.3125 -1 3.75 -1 C 4.070312 -1 4.34375 -1.03125 4.5625 -1.09375 C 4.78125 -1.15625 4.972656 -1.238281 5.140625 -1.34375 L 5.140625 -2.90625 L 4.5625 -2.90625 C 4.15625 -2.90625 3.953125 -3.085938 3.953125 -3.453125 C 3.953125 -3.828125 4.15625 -4.015625 4.5625 -4.015625 L 5.75 -4.015625 C 6.15625 -4.015625 6.359375 -3.804688 6.359375 -3.390625 L 6.359375 -1.03125 C 6.359375 -0.863281 6.332031 -0.722656 6.28125 -0.609375 C 6.226562 -0.492188 6.132812 -0.40625 6 -0.34375 C 5.695312 -0.1875 5.351562 -0.0625 4.96875 0.03125 C 4.582031 0.125 4.175781 0.171875 3.75 0.171875 Z M 3.75 0.171875 "/></g></g></g></svg>