<svg xmlns="http://www.w3.org/2000/svg" xmlns:xlink="http://www.w3.org/1999/xlink" width="40" zoomAndPan="magnify" viewBox="0 0 30 30.000001" height="37" preserveAspectRatio="xMidYMid meet" version="1.0"><defs><g/><clipPath id="0b656ee68d"><path d="M 4.46875 6.53125 L 25.53125 6.53125 L 25.53125 14.515625 L 4.46875 14.515625 Z M 4.46875 6.53125 " clip-rule="nonzero"/></clipPath><clipPath id="f62f4c5a16"><path d="M 0.484375 0 L 29.515625 0 L 29.515625 29.03125 L 0.484375 29.03125 Z M 0.484375 0 " clip-rule="nonzero"/></clipPath><clipPath id="36aebaeb81"><path d="M 4.113281 0 L 25.886719 0 C 27.890625 0 29.515625 1.625 29.515625 3.628906 L 29.515625 25.402344 C 29.515625 27.40625 27.890625 29.03125 25.886719 29.03125 L 4.113281 29.03125 C 2.109375 29.03125 0.484375 27.40625 0.484375 25.402344 L 0.484375 3.628906 C 0.484375 1.625 2.109375 0 4.113281 0 Z M 4.113281 0 " clip-rule="nonzero"/></clipPath></defs><g clip-path="url(#0b656ee68d)"><path fill="#aab4c4" d="M 4.46875 6.53125 L 25.519531 6.53125 L 25.519531 14.515625 L 4.46875 14.515625 Z M 4.46875 6.53125 " fill-opacity="1" fill-rule="nonzero"/></g><g clip-path="url(#f62f4c5a16)"><g clip-path="url(#36aebaeb81)"><path fill="#aab4c4" d="M 0.484375 0 L 29.515625 0 L 29.515625 29.03125 L 0.484375 29.03125 Z M 0.484375 0 " fill-opacity="1" fill-rule="nonzero"/></g></g><g fill="#072958" fill-opacity="1"><g transform="translate(4.476203, 10.576182)"><g><path d="M 1.015625 0 C 0.722656 0 0.578125 -0.144531 0.578125 -0.4375 L 0.578125 -5.21875 C 0.578125 -5.519531 0.722656 -5.671875 1.015625 -5.671875 L 2.953125 -5.671875 C 3.421875 -5.671875 3.804688 -5.546875 4.109375 -5.296875 C 4.410156 -5.046875 4.5625 -4.691406 4.5625 -4.234375 C 4.5625 -3.898438 4.484375 -3.625 4.328125 -3.40625 C 4.179688 -3.1875 3.992188 -3.039062 3.765625 -2.96875 C 4.054688 -2.914062 4.300781 -2.757812 4.5 -2.5 C 4.695312 -2.238281 4.796875 -1.914062 4.796875 -1.53125 C 4.796875 -1.007812 4.640625 -0.625 4.328125 -0.375 C 4.015625 -0.125 3.585938 0 3.046875 0 Z M 1.5 -0.859375 L 2.90625 -0.859375 C 3.207031 -0.859375 3.425781 -0.921875 3.5625 -1.046875 C 3.707031 -1.179688 3.78125 -1.382812 3.78125 -1.65625 C 3.78125 -1.925781 3.695312 -2.125 3.53125 -2.25 C 3.363281 -2.382812 3.15625 -2.453125 2.90625 -2.453125 L 1.5 -2.453125 Z M 1.5 -3.328125 L 2.796875 -3.328125 C 3.046875 -3.328125 3.226562 -3.394531 3.34375 -3.53125 C 3.46875 -3.664062 3.53125 -3.851562 3.53125 -4.09375 C 3.53125 -4.320312 3.460938 -4.492188 3.328125 -4.609375 C 3.203125 -4.734375 3.019531 -4.796875 2.78125 -4.796875 L 1.5 -4.796875 Z M 1.5 -3.328125 "/></g></g></g><g fill="#072958" fill-opacity="1"><g transform="translate(9.634415, 10.576182)"><g><path d="M 1.046875 0 C 0.734375 0 0.578125 -0.160156 0.578125 -0.484375 L 0.578125 -5.1875 C 0.578125 -5.507812 0.726562 -5.671875 1.03125 -5.671875 C 1.34375 -5.671875 1.5 -5.507812 1.5 -5.1875 L 1.5 -0.859375 L 3.984375 -0.859375 C 4.296875 -0.859375 4.453125 -0.71875 4.453125 -0.4375 C 4.453125 -0.144531 4.296875 0 3.984375 0 Z M 1.046875 0 "/></g></g></g><g fill="#072958" fill-opacity="1"><g transform="translate(14.242848, 10.576182)"><g><path d="M 2.953125 0.125 C 2.429688 0.125 1.96875 0.00390625 1.5625 -0.234375 C 1.164062 -0.472656 0.851562 -0.816406 0.625 -1.265625 C 0.40625 -1.710938 0.296875 -2.234375 0.296875 -2.828125 C 0.296875 -3.429688 0.40625 -3.957031 0.625 -4.40625 C 0.851562 -4.851562 1.164062 -5.195312 1.5625 -5.4375 C 1.96875 -5.6875 2.429688 -5.8125 2.953125 -5.8125 C 3.460938 -5.8125 3.914062 -5.6875 4.3125 -5.4375 C 4.707031 -5.195312 5.019531 -4.851562 5.25 -4.40625 C 5.476562 -3.957031 5.59375 -3.429688 5.59375 -2.828125 C 5.59375 -2.234375 5.476562 -1.710938 5.25 -1.265625 C 5.019531 -0.816406 4.707031 -0.472656 4.3125 -0.234375 C 3.914062 0.00390625 3.460938 0.125 2.953125 0.125 Z M 2.953125 -0.78125 C 3.285156 -0.78125 3.578125 -0.863281 3.828125 -1.03125 C 4.078125 -1.195312 4.269531 -1.4375 4.40625 -1.75 C 4.539062 -2.0625 4.609375 -2.421875 4.609375 -2.828125 C 4.609375 -3.242188 4.539062 -3.609375 4.40625 -3.921875 C 4.269531 -4.234375 4.078125 -4.472656 3.828125 -4.640625 C 3.578125 -4.804688 3.285156 -4.890625 2.953125 -4.890625 C 2.609375 -4.890625 2.3125 -4.804688 2.0625 -4.640625 C 1.8125 -4.472656 1.613281 -4.234375 1.46875 -3.921875 C 1.332031 -3.609375 1.265625 -3.242188 1.265625 -2.828125 C 1.265625 -2.421875 1.332031 -2.0625 1.46875 -1.75 C 1.613281 -1.4375 1.8125 -1.195312 2.0625 -1.03125 C 2.3125 -0.863281 2.609375 -0.78125 2.953125 -0.78125 Z M 2.953125 -0.78125 "/></g></g></g><g fill="#072958" fill-opacity="1"><g transform="translate(20.120624, 10.576182)"><g><path d="M 2.921875 0.125 C 2.410156 0.125 1.957031 0.00390625 1.5625 -0.234375 C 1.164062 -0.472656 0.851562 -0.816406 0.625 -1.265625 C 0.40625 -1.710938 0.296875 -2.234375 0.296875 -2.828125 C 0.296875 -3.429688 0.40625 -3.957031 0.625 -4.40625 C 0.851562 -4.851562 1.164062 -5.195312 1.5625 -5.4375 C 1.957031 -5.6875 2.410156 -5.8125 2.921875 -5.8125 C 3.242188 -5.8125 3.546875 -5.765625 3.828125 -5.671875 C 4.109375 -5.585938 4.363281 -5.46875 4.59375 -5.3125 C 4.71875 -5.226562 4.785156 -5.125 4.796875 -5 C 4.804688 -4.882812 4.765625 -4.769531 4.671875 -4.65625 C 4.578125 -4.53125 4.472656 -4.460938 4.359375 -4.453125 C 4.253906 -4.453125 4.132812 -4.492188 4 -4.578125 C 3.851562 -4.679688 3.6875 -4.757812 3.5 -4.8125 C 3.320312 -4.863281 3.128906 -4.890625 2.921875 -4.890625 C 2.578125 -4.890625 2.28125 -4.800781 2.03125 -4.625 C 1.789062 -4.457031 1.601562 -4.21875 1.46875 -3.90625 C 1.332031 -3.601562 1.265625 -3.242188 1.265625 -2.828125 C 1.265625 -2.421875 1.332031 -2.0625 1.46875 -1.75 C 1.601562 -1.445312 1.789062 -1.207031 2.03125 -1.03125 C 2.28125 -0.863281 2.578125 -0.78125 2.921875 -0.78125 C 3.171875 -0.78125 3.378906 -0.804688 3.546875 -0.859375 C 3.722656 -0.910156 3.875 -0.972656 4 -1.046875 L 4 -2.265625 L 3.546875 -2.265625 C 3.234375 -2.265625 3.078125 -2.40625 3.078125 -2.6875 C 3.078125 -2.976562 3.234375 -3.125 3.546875 -3.125 L 4.46875 -3.125 C 4.789062 -3.125 4.953125 -2.960938 4.953125 -2.640625 L 4.953125 -0.8125 C 4.953125 -0.675781 4.929688 -0.5625 4.890625 -0.46875 C 4.847656 -0.382812 4.773438 -0.316406 4.671875 -0.265625 C 4.441406 -0.148438 4.175781 -0.0546875 3.875 0.015625 C 3.570312 0.0859375 3.253906 0.125 2.921875 0.125 Z M 2.921875 0.125 "/></g></g></g><path stroke-linecap="butt" transform="matrix(0.725806, 0, 0, 0.725806, 6.957402, 16.193584)" fill="none" stroke-linejoin="miter" d="M -0.00051055 0.497521 L 22.162337 0.497521 " stroke="#072958" stroke-width="1" stroke-opacity="1" stroke-miterlimit="4"/><path stroke-linecap="butt" transform="matrix(0.725806, 0, 0, 0.725806, 6.957402, 18.796585)" fill="none" stroke-linejoin="miter" d="M -0.00051055 0.50092 L 22.162337 0.50092 " stroke="#072958" stroke-width="1" stroke-opacity="1" stroke-miterlimit="4"/><path stroke-linecap="butt" transform="matrix(0.725806, 0, 0, 0.725806, 6.957402, 21.516577)" fill="none" stroke-linejoin="miter" d="M -0.00051055 0.49921 L 22.162337 0.49921 " stroke="#072958" stroke-width="1" stroke-opacity="1" stroke-miterlimit="4"/></svg>