<svg xmlns="http://www.w3.org/2000/svg" xmlns:xlink="http://www.w3.org/1999/xlink" width="40" zoomAndPan="magnify" viewBox="0 0 30 30.000001" height="40" preserveAspectRatio="xMidYMid meet" version="1.0"><defs><g/><clipPath id="456b92a098"><path d="M 0.484375 0 L 29.515625 0 L 29.515625 29.03125 L 0.484375 29.03125 Z M 0.484375 0 " clip-rule="nonzero"/></clipPath><clipPath id="6d57219438"><path d="M 4.46875 6.53125 L 25.53125 6.53125 L 25.53125 14.515625 L 4.46875 14.515625 Z M 4.46875 6.53125 " clip-rule="nonzero"/></clipPath></defs><g clip-path="url(#456b92a098)"><path fill="#ffffff" d="M 0.484375 0 L 29.515625 0 L 29.515625 29.03125 L 0.484375 29.03125 Z M 0.484375 0 " fill-opacity="1" fill-rule="nonzero"/><path fill="#072958" d="M 0.484375 0 L 29.515625 0 L 29.515625 29.03125 L 0.484375 29.03125 Z M 0.484375 0 " fill-opacity="1" fill-rule="nonzero"/><path fill="#072958" d="M 32.449219 14.515625 C 32.449219 15.085938 32.421875 15.65625 32.367188 16.222656 C 32.3125 16.792969 32.226562 17.359375 32.117188 17.917969 C 32.003906 18.480469 31.867188 19.035156 31.699219 19.582031 C 31.535156 20.128906 31.339844 20.664062 31.121094 21.191406 C 30.902344 21.722656 30.660156 22.238281 30.390625 22.742188 C 30.121094 23.246094 29.828125 23.734375 29.507812 24.210938 C 29.191406 24.6875 28.851562 25.144531 28.488281 25.585938 C 28.125 26.027344 27.742188 26.449219 27.339844 26.855469 C 26.933594 27.257812 26.511719 27.644531 26.070312 28.003906 C 25.628906 28.367188 25.167969 28.707031 24.695312 29.027344 C 24.21875 29.34375 23.730469 29.636719 23.226562 29.90625 C 22.722656 30.175781 22.203125 30.421875 21.675781 30.640625 C 21.148438 30.859375 20.609375 31.050781 20.0625 31.214844 C 19.515625 31.382812 18.964844 31.519531 18.402344 31.632812 C 17.84375 31.742188 17.277344 31.828125 16.707031 31.882812 C 16.140625 31.9375 15.570312 31.96875 14.996094 31.96875 C 14.425781 31.96875 13.855469 31.9375 13.285156 31.882812 C 12.71875 31.828125 12.152344 31.742188 11.59375 31.632812 C 11.03125 31.519531 10.476562 31.382812 9.929688 31.214844 C 9.382812 31.050781 8.847656 30.859375 8.320312 30.640625 C 7.789062 30.421875 7.273438 30.175781 6.769531 29.90625 C 6.265625 29.636719 5.777344 29.34375 5.300781 29.027344 C 4.824219 28.707031 4.367188 28.367188 3.925781 28.003906 C 3.484375 27.644531 3.058594 27.257812 2.65625 26.855469 C 2.253906 26.449219 1.867188 26.027344 1.507812 25.585938 C 1.144531 25.144531 0.804688 24.6875 0.484375 24.210938 C 0.167969 23.734375 -0.125 23.246094 -0.394531 22.742188 C -0.664062 22.238281 -0.910156 21.722656 -1.128906 21.191406 C -1.347656 20.664062 -1.539062 20.128906 -1.703125 19.582031 C -1.871094 19.035156 -2.007812 18.480469 -2.121094 17.917969 C -2.230469 17.359375 -2.316406 16.792969 -2.371094 16.222656 C -2.425781 15.65625 -2.457031 15.085938 -2.457031 14.515625 C -2.457031 13.941406 -2.425781 13.371094 -2.371094 12.804688 C -2.316406 12.234375 -2.230469 11.667969 -2.121094 11.109375 C -2.007812 10.546875 -1.871094 9.996094 -1.703125 9.449219 C -1.539062 8.902344 -1.347656 8.363281 -1.128906 7.835938 C -0.910156 7.304688 -0.664062 6.789062 -0.394531 6.285156 C -0.125 5.78125 0.167969 5.292969 0.484375 4.816406 C 0.804688 4.34375 1.144531 3.882812 1.507812 3.441406 C 1.867188 3 2.253906 2.578125 2.65625 2.171875 C 3.058594 1.769531 3.484375 1.386719 3.925781 1.023438 C 4.367188 0.660156 4.824219 0.320312 5.300781 0 C 5.777344 -0.316406 6.265625 -0.609375 6.769531 -0.878906 C 7.273438 -1.148438 7.789062 -1.390625 8.320312 -1.609375 C 8.847656 -1.828125 9.382812 -2.023438 9.929688 -2.1875 C 10.476562 -2.355469 11.03125 -2.492188 11.59375 -2.605469 C 12.152344 -2.714844 12.71875 -2.800781 13.285156 -2.855469 C 13.855469 -2.910156 14.425781 -2.941406 14.996094 -2.941406 C 15.570312 -2.941406 16.140625 -2.910156 16.707031 -2.855469 C 17.277344 -2.800781 17.84375 -2.714844 18.402344 -2.605469 C 18.964844 -2.492188 19.515625 -2.355469 20.0625 -2.1875 C 20.609375 -2.023438 21.148438 -1.828125 21.675781 -1.609375 C 22.203125 -1.390625 22.722656 -1.148438 23.226562 -0.878906 C 23.730469 -0.609375 24.21875 -0.316406 24.695312 0 C 25.167969 0.320312 25.628906 0.660156 26.070312 1.023438 C 26.511719 1.386719 26.933594 1.769531 27.339844 2.171875 C 27.742188 2.578125 28.125 3 28.488281 3.441406 C 28.851562 3.882812 29.191406 4.34375 29.507812 4.816406 C 29.828125 5.292969 30.121094 5.78125 30.390625 6.285156 C 30.660156 6.789062 30.902344 7.304688 31.121094 7.835938 C 31.339844 8.363281 31.535156 8.902344 31.699219 9.449219 C 31.867188 9.996094 32.003906 10.546875 32.117188 11.109375 C 32.226562 11.667969 32.3125 12.234375 32.367188 12.804688 C 32.421875 13.371094 32.449219 13.941406 32.449219 14.515625 Z M 32.449219 14.515625 " fill-opacity="1" fill-rule="nonzero"/></g><path fill="#aab4c4" d="M 23.679688 25.695312 L 6.328125 25.695312 C 4.941406 25.695312 3.84375 24.570312 3.84375 23.195312 L 3.84375 5.832031 C 3.84375 4.472656 4.96875 3.34375 6.328125 3.34375 L 23.679688 3.34375 C 25.054688 3.34375 26.167969 4.472656 26.167969 5.832031 L 26.167969 23.179688 C 26.179688 24.570312 25.054688 25.695312 23.679688 25.695312 Z M 22.566406 22.121094 L 6.90625 22.121094 C 6.695312 22.121094 6.511719 21.949219 6.511719 21.726562 C 6.511719 21.503906 6.695312 21.324219 6.90625 21.324219 L 22.566406 21.324219 C 22.789062 21.324219 22.972656 21.503906 22.972656 21.726562 C 22.972656 21.949219 22.789062 22.121094 22.566406 22.121094 Z M 22.566406 19.582031 L 6.90625 19.582031 C 6.695312 19.582031 6.511719 19.398438 6.511719 19.1875 C 6.511719 18.964844 6.695312 18.78125 6.90625 18.78125 L 22.566406 18.78125 C 22.789062 18.78125 22.972656 18.964844 22.972656 19.1875 C 22.972656 19.398438 22.789062 19.582031 22.566406 19.582031 Z M 22.566406 17.054688 L 6.90625 17.054688 C 6.695312 17.054688 6.511719 16.871094 6.511719 16.648438 C 6.511719 16.4375 6.695312 16.253906 6.90625 16.253906 L 22.566406 16.253906 C 22.789062 16.253906 22.972656 16.4375 22.972656 16.648438 C 22.972656 16.871094 22.789062 17.054688 22.566406 17.054688 Z M 21.621094 12.289062 C 21.441406 12.289062 21.242188 12.273438 21.058594 12.222656 C 20.40625 12.039062 19.84375 11.582031 19.515625 10.925781 C 18.875 9.65625 19.253906 8.019531 20.378906 7.273438 C 20.929688 6.90625 21.570312 6.816406 22.160156 6.984375 C 22.8125 7.167969 23.378906 7.613281 23.703125 8.269531 C 23.796875 8.476562 23.730469 8.714844 23.535156 8.804688 C 23.324219 8.898438 23.089844 8.816406 22.996094 8.621094 C 22.761719 8.164062 22.410156 7.847656 21.964844 7.730469 C 21.570312 7.613281 21.164062 7.691406 20.824219 7.929688 C 20.027344 8.453125 19.75 9.628906 20.222656 10.558594 C 20.457031 11.019531 20.824219 11.332031 21.257812 11.449219 C 21.582031 11.542969 21.925781 11.515625 22.226562 11.359375 L 22.226562 10.496094 L 21.257812 10.496094 C 21.035156 10.496094 20.851562 10.3125 20.851562 10.089844 C 20.851562 9.878906 21.035156 9.695312 21.257812 9.695312 L 22.617188 9.695312 C 22.839844 9.695312 23.023438 9.878906 23.023438 10.089844 L 23.023438 13.113281 C 23.023438 13.324219 22.839844 13.492188 22.617188 13.492188 C 22.410156 13.492188 22.226562 13.308594 22.226562 13.085938 L 22.226562 12.210938 C 22.027344 12.261719 21.820312 12.289062 21.621094 12.289062 Z M 16.894531 13.492188 L 16.308594 13.492188 C 15.457031 13.492188 14.761719 12.796875 14.761719 11.949219 L 14.761719 8.476562 C 14.761719 7.613281 15.457031 6.933594 16.308594 6.933594 L 16.894531 6.933594 C 17.746094 6.933594 18.441406 7.613281 18.441406 8.476562 L 18.441406 11.949219 C 18.441406 12.796875 17.746094 13.492188 16.894531 13.492188 Z M 16.308594 7.691406 C 15.886719 7.691406 15.546875 8.03125 15.546875 8.453125 L 15.546875 11.921875 C 15.546875 12.339844 15.886719 12.695312 16.308594 12.695312 L 16.894531 12.695312 C 17.316406 12.695312 17.65625 12.339844 17.65625 11.921875 L 17.65625 8.476562 C 17.65625 8.058594 17.316406 7.707031 16.894531 7.707031 L 16.308594 7.707031 Z M 13.964844 13.492188 L 11.058594 13.492188 C 10.835938 13.492188 10.652344 13.308594 10.652344 13.085938 L 10.652344 7.3125 C 10.652344 7.089844 10.835938 6.90625 11.058594 6.90625 C 11.277344 6.90625 11.460938 7.089844 11.460938 7.3125 L 11.460938 12.707031 L 13.964844 12.707031 C 14.1875 12.707031 14.371094 12.890625 14.371094 13.113281 C 14.371094 13.324219 14.1875 13.492188 13.964844 13.492188 Z M 6.25 10.207031 L 6.25 7.285156 C 6.25 7.078125 6.433594 6.894531 6.65625 6.894531 L 8.109375 6.894531 C 9.132812 6.894531 9.945312 7.707031 9.945312 8.726562 C 9.945312 9.328125 9.683594 9.851562 9.261719 10.191406 C 9.277344 10.207031 9.277344 10.21875 9.289062 10.230469 L 9.300781 10.230469 C 9.316406 10.246094 9.328125 10.257812 9.355469 10.285156 L 9.367188 10.296875 L 9.394531 10.3125 L 9.40625 10.335938 L 9.421875 10.351562 L 9.433594 10.351562 C 9.433594 10.363281 9.445312 10.375 9.460938 10.390625 L 9.5 10.429688 C 9.511719 10.441406 9.523438 10.453125 9.539062 10.480469 L 9.550781 10.480469 L 9.5625 10.507812 L 9.578125 10.519531 L 9.589844 10.546875 L 9.601562 10.558594 L 9.617188 10.585938 L 9.628906 10.597656 L 9.640625 10.625 L 9.65625 10.625 L 9.667969 10.664062 L 9.683594 10.675781 L 9.683594 10.691406 L 9.695312 10.71875 L 9.707031 10.730469 L 9.722656 10.757812 L 9.734375 10.769531 L 9.734375 10.78125 L 9.746094 10.808594 L 9.761719 10.835938 L 9.773438 10.847656 L 9.785156 10.875 L 9.785156 10.886719 L 9.800781 10.914062 L 9.8125 10.925781 L 9.8125 10.953125 L 9.824219 10.964844 L 9.839844 10.992188 L 9.839844 11.003906 L 9.851562 11.042969 L 9.851562 11.058594 L 9.863281 11.082031 L 9.863281 11.097656 L 9.878906 11.121094 L 9.878906 11.136719 C 9.878906 11.148438 9.890625 11.160156 9.890625 11.175781 L 9.90625 11.214844 L 9.90625 11.265625 C 9.917969 11.28125 9.917969 11.292969 9.917969 11.304688 L 9.917969 11.320312 L 9.929688 11.359375 L 9.929688 11.410156 C 9.929688 11.425781 9.929688 11.4375 9.945312 11.449219 C 9.945312 11.464844 9.945312 11.476562 9.945312 11.488281 L 9.945312 11.59375 C 9.945312 11.605469 9.945312 11.621094 9.945312 11.632812 C 9.945312 12.667969 9.132812 13.503906 8.109375 13.503906 L 6.65625 13.503906 C 6.433594 13.503906 6.25 13.324219 6.25 13.113281 Z M 8.269531 9.800781 C 8.777344 9.734375 9.171875 9.289062 9.171875 8.765625 C 9.171875 8.175781 8.6875 7.707031 8.109375 7.707031 L 7.050781 7.707031 L 7.050781 9.800781 L 8.109375 9.800781 C 8.125 9.800781 8.136719 9.800781 8.148438 9.800781 Z M 8.269531 9.800781 " fill-opacity="1" fill-rule="evenodd"/><path fill="#aab4c4" d="M 7.050781 12.707031 L 8.109375 12.707031 C 8.6875 12.707031 9.171875 12.234375 9.171875 11.660156 C 9.171875 11.070312 8.6875 10.597656 8.109375 10.597656 L 7.050781 10.597656 Z M 7.050781 12.707031 " fill-opacity="1" fill-rule="evenodd"/><g clip-path="url(#6d57219438)"><path fill="#aab4c4" d="M 4.46875 6.53125 L 25.519531 6.53125 L 25.519531 14.515625 L 4.46875 14.515625 Z M 4.46875 6.53125 " fill-opacity="1" fill-rule="nonzero"/></g><g fill="#072958" fill-opacity="1"><g transform="translate(4.476203, 12.498276)"><g><path d="M 1.015625 0 C 0.722656 0 0.578125 -0.144531 0.578125 -0.4375 L 0.578125 -5.21875 C 0.578125 -5.519531 0.722656 -5.671875 1.015625 -5.671875 L 2.953125 -5.671875 C 3.421875 -5.671875 3.804688 -5.546875 4.109375 -5.296875 C 4.410156 -5.046875 4.5625 -4.691406 4.5625 -4.234375 C 4.5625 -3.898438 4.484375 -3.625 4.328125 -3.40625 C 4.179688 -3.1875 3.992188 -3.039062 3.765625 -2.96875 C 4.054688 -2.914062 4.300781 -2.757812 4.5 -2.5 C 4.695312 -2.238281 4.796875 -1.914062 4.796875 -1.53125 C 4.796875 -1.007812 4.640625 -0.625 4.328125 -0.375 C 4.015625 -0.125 3.585938 0 3.046875 0 Z M 1.5 -0.859375 L 2.90625 -0.859375 C 3.207031 -0.859375 3.425781 -0.921875 3.5625 -1.046875 C 3.707031 -1.179688 3.78125 -1.382812 3.78125 -1.65625 C 3.78125 -1.925781 3.695312 -2.125 3.53125 -2.25 C 3.363281 -2.382812 3.15625 -2.453125 2.90625 -2.453125 L 1.5 -2.453125 Z M 1.5 -3.328125 L 2.796875 -3.328125 C 3.046875 -3.328125 3.226562 -3.394531 3.34375 -3.53125 C 3.46875 -3.664062 3.53125 -3.851562 3.53125 -4.09375 C 3.53125 -4.320312 3.460938 -4.492188 3.328125 -4.609375 C 3.203125 -4.734375 3.019531 -4.796875 2.78125 -4.796875 L 1.5 -4.796875 Z M 1.5 -3.328125 "/></g></g></g><g fill="#072958" fill-opacity="1"><g transform="translate(9.634415, 12.498276)"><g><path d="M 1.046875 0 C 0.734375 0 0.578125 -0.160156 0.578125 -0.484375 L 0.578125 -5.1875 C 0.578125 -5.507812 0.726562 -5.671875 1.03125 -5.671875 C 1.34375 -5.671875 1.5 -5.507812 1.5 -5.1875 L 1.5 -0.859375 L 3.984375 -0.859375 C 4.296875 -0.859375 4.453125 -0.71875 4.453125 -0.4375 C 4.453125 -0.144531 4.296875 0 3.984375 0 Z M 1.046875 0 "/></g></g></g><g fill="#072958" fill-opacity="1"><g transform="translate(14.242848, 12.498276)"><g><path d="M 2.953125 0.125 C 2.429688 0.125 1.96875 0.00390625 1.5625 -0.234375 C 1.164062 -0.472656 0.851562 -0.816406 0.625 -1.265625 C 0.40625 -1.710938 0.296875 -2.234375 0.296875 -2.828125 C 0.296875 -3.429688 0.40625 -3.957031 0.625 -4.40625 C 0.851562 -4.851562 1.164062 -5.195312 1.5625 -5.4375 C 1.96875 -5.6875 2.429688 -5.8125 2.953125 -5.8125 C 3.460938 -5.8125 3.914062 -5.6875 4.3125 -5.4375 C 4.707031 -5.195312 5.019531 -4.851562 5.25 -4.40625 C 5.476562 -3.957031 5.59375 -3.429688 5.59375 -2.828125 C 5.59375 -2.234375 5.476562 -1.710938 5.25 -1.265625 C 5.019531 -0.816406 4.707031 -0.472656 4.3125 -0.234375 C 3.914062 0.00390625 3.460938 0.125 2.953125 0.125 Z M 2.953125 -0.78125 C 3.285156 -0.78125 3.578125 -0.863281 3.828125 -1.03125 C 4.078125 -1.195312 4.269531 -1.4375 4.40625 -1.75 C 4.539062 -2.0625 4.609375 -2.421875 4.609375 -2.828125 C 4.609375 -3.242188 4.539062 -3.609375 4.40625 -3.921875 C 4.269531 -4.234375 4.078125 -4.472656 3.828125 -4.640625 C 3.578125 -4.804688 3.285156 -4.890625 2.953125 -4.890625 C 2.609375 -4.890625 2.3125 -4.804688 2.0625 -4.640625 C 1.8125 -4.472656 1.613281 -4.234375 1.46875 -3.921875 C 1.332031 -3.609375 1.265625 -3.242188 1.265625 -2.828125 C 1.265625 -2.421875 1.332031 -2.0625 1.46875 -1.75 C 1.613281 -1.4375 1.8125 -1.195312 2.0625 -1.03125 C 2.3125 -0.863281 2.609375 -0.78125 2.953125 -0.78125 Z M 2.953125 -0.78125 "/></g></g></g><g fill="#072958" fill-opacity="1"><g transform="translate(20.120624, 12.498276)"><g><path d="M 2.921875 0.125 C 2.410156 0.125 1.957031 0.00390625 1.5625 -0.234375 C 1.164062 -0.472656 0.851562 -0.816406 0.625 -1.265625 C 0.40625 -1.710938 0.296875 -2.234375 0.296875 -2.828125 C 0.296875 -3.429688 0.40625 -3.957031 0.625 -4.40625 C 0.851562 -4.851562 1.164062 -5.195312 1.5625 -5.4375 C 1.957031 -5.6875 2.410156 -5.8125 2.921875 -5.8125 C 3.242188 -5.8125 3.546875 -5.765625 3.828125 -5.671875 C 4.109375 -5.585938 4.363281 -5.46875 4.59375 -5.3125 C 4.71875 -5.226562 4.785156 -5.125 4.796875 -5 C 4.804688 -4.882812 4.765625 -4.769531 4.671875 -4.65625 C 4.578125 -4.53125 4.472656 -4.460938 4.359375 -4.453125 C 4.253906 -4.453125 4.132812 -4.492188 4 -4.578125 C 3.851562 -4.679688 3.6875 -4.757812 3.5 -4.8125 C 3.320312 -4.863281 3.128906 -4.890625 2.921875 -4.890625 C 2.578125 -4.890625 2.28125 -4.800781 2.03125 -4.625 C 1.789062 -4.457031 1.601562 -4.21875 1.46875 -3.90625 C 1.332031 -3.601562 1.265625 -3.242188 1.265625 -2.828125 C 1.265625 -2.421875 1.332031 -2.0625 1.46875 -1.75 C 1.601562 -1.445312 1.789062 -1.207031 2.03125 -1.03125 C 2.28125 -0.863281 2.578125 -0.78125 2.921875 -0.78125 C 3.171875 -0.78125 3.378906 -0.804688 3.546875 -0.859375 C 3.722656 -0.910156 3.875 -0.972656 4 -1.046875 L 4 -2.265625 L 3.546875 -2.265625 C 3.234375 -2.265625 3.078125 -2.40625 3.078125 -2.6875 C 3.078125 -2.976562 3.234375 -3.125 3.546875 -3.125 L 4.46875 -3.125 C 4.789062 -3.125 4.953125 -2.960938 4.953125 -2.640625 L 4.953125 -0.8125 C 4.953125 -0.675781 4.929688 -0.5625 4.890625 -0.46875 C 4.847656 -0.382812 4.773438 -0.316406 4.671875 -0.265625 C 4.441406 -0.148438 4.175781 -0.0546875 3.875 0.015625 C 3.570312 0.0859375 3.253906 0.125 2.921875 0.125 Z M 2.921875 0.125 "/></g></g></g></svg>