<svg xmlns="http://www.w3.org/2000/svg" xmlns:xlink="http://www.w3.org/1999/xlink" width="25" zoomAndPan="magnify" viewBox="0 0 30 30.000001" height="40" preserveAspectRatio="xMidYMid meet" version="1.0"><defs><clipPath id="fed25febe7"><path d="M 0.867188 2.917969 L 29.175781 2.917969 L 29.175781 26.144531 L 0.867188 26.144531 Z M 0.867188 2.917969 " clip-rule="nonzero"/></clipPath></defs><path fill="#aab4c4" d="M 21.578125 12.53125 C 21.664062 12.429688 21.769531 12.347656 21.886719 12.285156 C 22.007812 12.222656 22.132812 12.1875 22.265625 12.175781 C 22.398438 12.164062 22.53125 12.179688 22.65625 12.21875 C 22.785156 12.261719 22.898438 12.324219 23.003906 12.410156 L 23.074219 12.460938 C 23.1875 12.132812 23.246094 11.796875 23.246094 11.449219 C 23.277344 11.152344 23.253906 10.863281 23.171875 10.574219 C 23.09375 10.285156 22.960938 10.023438 22.777344 9.789062 C 22.597656 9.550781 22.375 9.359375 22.117188 9.207031 C 21.859375 9.058594 21.582031 8.960938 21.285156 8.917969 C 20.992188 8.960938 20.714844 9.058594 20.457031 9.207031 C 20.199219 9.359375 19.976562 9.550781 19.796875 9.789062 C 19.613281 10.023438 19.480469 10.285156 19.398438 10.574219 C 19.320312 10.863281 19.296875 11.152344 19.328125 11.449219 C 19.296875 11.75 19.320312 12.042969 19.398438 12.328125 C 19.480469 12.617188 19.613281 12.878906 19.792969 13.117188 C 19.976562 13.355469 20.199219 13.550781 20.457031 13.699219 C 20.714844 13.851562 20.992188 13.949219 21.285156 13.996094 C 21.421875 13.992188 21.550781 13.976562 21.679688 13.945312 C 21.582031 13.855469 21.5 13.753906 21.441406 13.632812 C 21.382812 13.515625 21.351562 13.390625 21.339844 13.257812 C 21.332031 13.125 21.347656 12.996094 21.386719 12.871094 C 21.429688 12.746094 21.492188 12.632812 21.578125 12.53125 Z M 21.578125 12.53125 " fill-opacity="1" fill-rule="nonzero"/><g clip-path="url(#fed25febe7)"><path fill="#aab4c4" d="M 28.121094 2.960938 L 1.878906 2.960938 C 1.742188 2.960938 1.613281 2.988281 1.492188 3.039062 C 1.367188 3.089844 1.257812 3.164062 1.164062 3.257812 C 1.070312 3.351562 0.996094 3.460938 0.945312 3.585938 C 0.894531 3.710938 0.867188 3.839844 0.867188 3.972656 L 0.867188 19.726562 C 0.867188 19.859375 0.894531 19.988281 0.945312 20.113281 C 0.996094 20.238281 1.070312 20.347656 1.164062 20.441406 C 1.257812 20.535156 1.367188 20.609375 1.492188 20.660156 C 1.613281 20.710938 1.742188 20.738281 1.878906 20.738281 L 22.195312 20.738281 L 23.304688 25.238281 C 23.363281 25.460938 23.480469 25.644531 23.664062 25.789062 C 23.847656 25.929688 24.054688 26.003906 24.285156 26.003906 C 24.515625 26.003906 24.722656 25.929688 24.90625 25.789062 C 25.089844 25.644531 25.207031 25.460938 25.261719 25.238281 L 26.382812 20.738281 L 28.121094 20.738281 C 28.253906 20.738281 28.382812 20.710938 28.507812 20.660156 C 28.628906 20.609375 28.738281 20.535156 28.832031 20.441406 C 28.929688 20.347656 29 20.238281 29.050781 20.113281 C 29.105469 19.988281 29.128906 19.859375 29.128906 19.726562 L 29.128906 3.972656 C 29.128906 3.839844 29.105469 3.710938 29.050781 3.585938 C 29 3.460938 28.929688 3.351562 28.832031 3.257812 C 28.738281 3.164062 28.628906 3.089844 28.507812 3.039062 C 28.382812 2.988281 28.253906 2.960938 28.121094 2.960938 Z M 9.832031 12.410156 L 6.925781 12.410156 L 6.925781 15.054688 C 6.925781 15.1875 6.898438 15.316406 6.847656 15.441406 C 6.796875 15.5625 6.722656 15.671875 6.628906 15.769531 C 6.535156 15.863281 6.425781 15.933594 6.300781 15.988281 C 6.175781 16.039062 6.046875 16.0625 5.914062 16.0625 C 5.78125 16.0625 5.652344 16.039062 5.527344 15.988281 C 5.40625 15.933594 5.296875 15.863281 5.199219 15.769531 C 5.105469 15.671875 5.035156 15.5625 4.980469 15.441406 C 4.929688 15.316406 4.90625 15.1875 4.90625 15.054688 L 4.90625 8.371094 C 4.90625 8.238281 4.929688 8.109375 4.980469 7.984375 C 5.035156 7.863281 5.105469 7.753906 5.199219 7.660156 C 5.296875 7.5625 5.40625 7.492188 5.527344 7.441406 C 5.652344 7.390625 5.78125 7.363281 5.914062 7.363281 L 10.589844 7.363281 C 10.722656 7.363281 10.851562 7.390625 10.972656 7.441406 C 11.097656 7.492188 11.207031 7.5625 11.300781 7.660156 C 11.394531 7.753906 11.46875 7.863281 11.519531 7.984375 C 11.570312 8.109375 11.597656 8.238281 11.597656 8.371094 C 11.597656 8.507812 11.570312 8.636719 11.519531 8.757812 C 11.46875 8.882812 11.394531 8.992188 11.300781 9.085938 C 11.207031 9.179688 11.097656 9.253906 10.972656 9.304688 C 10.851562 9.355469 10.722656 9.382812 10.589844 9.382812 L 6.925781 9.382812 L 6.925781 10.390625 L 9.832031 10.390625 C 9.964844 10.390625 10.09375 10.417969 10.21875 10.46875 C 10.339844 10.519531 10.449219 10.59375 10.542969 10.6875 C 10.640625 10.78125 10.710938 10.890625 10.761719 11.015625 C 10.816406 11.136719 10.839844 11.265625 10.839844 11.398438 C 10.839844 11.535156 10.816406 11.664062 10.761719 11.785156 C 10.710938 11.910156 10.640625 12.019531 10.542969 12.113281 C 10.449219 12.207031 10.339844 12.28125 10.21875 12.332031 C 10.09375 12.382812 9.964844 12.410156 9.832031 12.410156 Z M 16.726562 16.277344 C 16.597656 16.316406 16.46875 16.332031 16.335938 16.320312 C 16.199219 16.3125 16.074219 16.277344 15.957031 16.214844 C 15.835938 16.15625 15.734375 16.074219 15.644531 15.972656 C 15.558594 15.871094 15.496094 15.757812 15.453125 15.628906 L 15.109375 14.558594 L 13.089844 14.558594 L 12.746094 15.640625 C 12.679688 15.847656 12.558594 16.015625 12.382812 16.144531 C 12.203125 16.273438 12.007812 16.335938 11.789062 16.335938 C 11.679688 16.351562 11.574219 16.351562 11.464844 16.335938 C 11.339844 16.296875 11.222656 16.230469 11.121094 16.144531 C 11.015625 16.058594 10.933594 15.957031 10.875 15.835938 C 10.8125 15.71875 10.777344 15.589844 10.765625 15.457031 C 10.753906 15.324219 10.769531 15.191406 10.808594 15.0625 L 13.132812 7.847656 C 13.199219 7.636719 13.320312 7.46875 13.496094 7.335938 C 13.671875 7.207031 13.871094 7.140625 14.089844 7.140625 C 14.320312 7.128906 14.527344 7.191406 14.714844 7.324219 C 14.902344 7.453125 15.03125 7.628906 15.101562 7.847656 L 17.410156 15.054688 C 17.480469 15.316406 17.449219 15.566406 17.3125 15.804688 C 17.179688 16.039062 16.984375 16.199219 16.726562 16.277344 Z M 25.6875 15.960938 C 25.484375 16.207031 25.226562 16.328125 24.910156 16.324219 C 24.667969 16.328125 24.453125 16.25 24.265625 16.09375 L 23.335938 15.328125 C 22.734375 15.761719 22.058594 15.988281 21.316406 16.003906 C 21.039062 15.980469 20.761719 15.933594 20.492188 15.859375 C 20.222656 15.785156 19.960938 15.683594 19.710938 15.558594 C 19.460938 15.433594 19.222656 15.285156 19.003906 15.113281 C 18.78125 14.941406 18.578125 14.75 18.394531 14.539062 C 18.210938 14.324219 18.046875 14.097656 17.90625 13.855469 C 17.765625 13.613281 17.652344 13.359375 17.5625 13.09375 C 17.472656 12.828125 17.40625 12.554688 17.371094 12.277344 C 17.332031 12 17.324219 11.71875 17.339844 11.441406 C 17.324219 11.160156 17.332031 10.882812 17.371094 10.605469 C 17.40625 10.328125 17.472656 10.054688 17.5625 9.789062 C 17.652344 9.523438 17.765625 9.269531 17.90625 9.027344 C 18.046875 8.785156 18.210938 8.558594 18.394531 8.347656 C 18.578125 8.136719 18.78125 7.945312 19.003906 7.773438 C 19.226562 7.601562 19.460938 7.453125 19.710938 7.328125 C 19.960938 7.203125 20.222656 7.105469 20.492188 7.03125 C 20.761719 6.957031 21.039062 6.910156 21.316406 6.890625 C 21.597656 6.910156 21.871094 6.957031 22.140625 7.03125 C 22.410156 7.105469 22.671875 7.203125 22.921875 7.328125 C 23.171875 7.453125 23.410156 7.601562 23.632812 7.773438 C 23.851562 7.945312 24.054688 8.136719 24.242188 8.347656 C 24.425781 8.558594 24.585938 8.785156 24.726562 9.027344 C 24.867188 9.269531 24.980469 9.523438 25.074219 9.789062 C 25.164062 10.054688 25.226562 10.328125 25.265625 10.605469 C 25.300781 10.882812 25.3125 11.160156 25.292969 11.441406 C 25.296875 12.277344 25.097656 13.066406 24.699219 13.800781 L 25.585938 14.550781 C 25.6875 14.636719 25.765625 14.738281 25.824219 14.859375 C 25.882812 14.976562 25.917969 15.101562 25.925781 15.234375 C 25.9375 15.367188 25.921875 15.496094 25.878906 15.621094 C 25.835938 15.75 25.773438 15.863281 25.6875 15.960938 Z M 25.6875 15.960938 " fill-opacity="1" fill-rule="nonzero"/></g><path fill="#aab4c4" d="M 13.726562 12.539062 L 14.464844 12.539062 L 14.089844 11.398438 Z M 13.726562 12.539062 " fill-opacity="1" fill-rule="nonzero"/></svg>