<svg xmlns="http://www.w3.org/2000/svg" xmlns:xlink="http://www.w3.org/1999/xlink" width="40" zoomAndPan="magnify" viewBox="0 0 30 30.000001" height="40" preserveAspectRatio="xMidYMid meet" version="1.0"><defs><clipPath id="25746633c2"><path d="M 0.484375 0 L 29.515625 0 L 29.515625 29.03125 L 0.484375 29.03125 Z M 0.484375 0 " clip-rule="nonzero"/></clipPath><clipPath id="87a1153a40"><path d="M 3 6 L 28 6 L 28 27.632812 L 3 27.632812 Z M 3 6 " clip-rule="nonzero"/></clipPath><clipPath id="5d51592959"><path d="M 0.484375 1.503906 L 29.515625 1.503906 L 29.515625 12 L 0.484375 12 Z M 0.484375 1.503906 " clip-rule="nonzero"/></clipPath></defs><g clip-path="url(#25746633c2)"><path fill="#ffffff" d="M 0.484375 0 L 29.515625 0 L 29.515625 29.03125 L 0.484375 29.03125 Z M 0.484375 0 " fill-opacity="1" fill-rule="nonzero"/><path fill="#ffffff" d="M 0.484375 0 L 29.515625 0 L 29.515625 29.03125 L 0.484375 29.03125 Z M 0.484375 0 " fill-opacity="1" fill-rule="nonzero"/></g><g clip-path="url(#87a1153a40)"><path fill="#aab4c4" d="M 15.976562 6.632812 C 15.347656 6.277344 14.316406 6.292969 13.6875 6.660156 L 4.234375 12.214844 C 3.609375 12.585938 3.101562 13.480469 3.101562 14.203125 L 3.101562 26.167969 C 3.101562 26.890625 3.695312 27.488281 4.417969 27.488281 L 10.007812 27.488281 C 10.742188 27.488281 11.335938 26.890625 11.335938 26.167969 L 11.335938 20.679688 C 11.335938 19.957031 11.933594 19.363281 12.652344 19.363281 L 17.574219 19.363281 C 18.300781 19.363281 18.894531 19.957031 18.894531 20.679688 L 18.894531 26.167969 C 18.894531 26.890625 19.492188 27.488281 20.222656 27.488281 L 25.8125 27.488281 C 26.53125 27.488281 27.128906 26.890625 27.128906 26.167969 L 27.128906 14.203125 C 27.128906 13.480469 26.609375 12.589844 25.972656 12.238281 L 15.976562 6.632812 " fill-opacity="1" fill-rule="nonzero"/></g><g clip-path="url(#5d51592959)"><path fill="#aab4c4" d="M 29.253906 10.753906 C 29.007812 11.1875 28.285156 11.253906 27.644531 10.886719 L 15.890625 4.0625 C 15.257812 3.699219 14.234375 3.707031 13.605469 4.082031 L 2.359375 10.863281 C 1.734375 11.238281 1.007812 11.1875 0.75 10.753906 C 0.488281 10.320312 0.78125 9.648438 1.40625 9.277344 L 13.589844 1.933594 C 14.21875 1.558594 15.238281 1.542969 15.871094 1.910156 L 28.578125 9.285156 C 29.203125 9.648438 29.515625 10.308594 29.253906 10.753906 " fill-opacity="1" fill-rule="nonzero"/></g></svg>