<svg xmlns="http://www.w3.org/2000/svg" xmlns:xlink="http://www.w3.org/1999/xlink" width="40" zoomAndPan="magnify" viewBox="0 0 30 30.000001" height="40" preserveAspectRatio="xMidYMid meet" version="1.0"><defs><clipPath id="dbad352a31"><path d="M 1.5 0 L 28.355469 0 L 28.355469 29.03125 L 1.5 29.03125 Z M 1.5 0 " clip-rule="nonzero"/></clipPath></defs><g clip-path="url(#dbad352a31)"><path fill="#aab4c4" d="M 26.21875 15.386719 C 24.511719 22.0625 20.734375 26.316406 14.996094 28.03125 C 9.265625 26.316406 5.492188 22.074219 3.777344 15.414062 C 2.703125 11.242188 2.816406 7.363281 2.894531 6.105469 C 8.25 5.9375 12.722656 2.777344 14.996094 1.125 C 17.257812 2.761719 21.742188 5.933594 27.097656 6.105469 C 27.175781 7.359375 27.289062 11.21875 26.21875 15.386719 Z M 28.023438 5.582031 C 28 5.335938 27.792969 5.148438 27.546875 5.148438 C 22.199219 5.148438 17.800781 1.964844 15.433594 0.253906 L 15.277344 0.140625 C 15.109375 0.0195312 14.882812 0.0195312 14.714844 0.140625 L 14.589844 0.230469 C 12.394531 1.824219 7.820312 5.148438 2.445312 5.148438 C 2.199219 5.148438 1.992188 5.335938 1.964844 5.582031 C 1.945312 5.777344 1.5 10.402344 2.835938 15.628906 C 4.625 22.605469 8.78125 27.230469 14.863281 28.996094 C 14.90625 29.007812 14.949219 29.015625 14.996094 29.015625 C 15.042969 29.015625 15.085938 29.007812 15.128906 28.996094 C 21.207031 27.230469 25.367188 22.605469 27.152344 15.628906 C 28.492188 10.402344 28.046875 5.777344 28.023438 5.582031 " fill-opacity="1" fill-rule="nonzero"/></g><path fill="#aab4c4" d="M 20.316406 10.765625 L 14.136719 18.808594 C 13.976562 19.019531 13.734375 19.152344 13.472656 19.183594 C 13.4375 19.1875 13.398438 19.191406 13.359375 19.191406 C 13.136719 19.191406 12.917969 19.113281 12.742188 18.96875 L 9.628906 16.421875 C 9.210938 16.078125 9.148438 15.460938 9.492188 15.042969 C 9.832031 14.625 10.449219 14.566406 10.867188 14.90625 L 13.199219 16.816406 L 18.765625 9.574219 C 19.09375 9.144531 19.707031 9.0625 20.136719 9.394531 C 20.5625 9.722656 20.644531 10.335938 20.316406 10.765625 Z M 14.996094 3.007812 C 12.90625 4.511719 9.105469 7.082031 4.535156 7.363281 C 4.414062 10.566406 4.632812 23 14.996094 26.203125 C 25.355469 23 25.574219 10.566406 25.457031 7.363281 C 20.882812 7.078125 17.074219 4.503906 14.996094 3.007812 " fill-opacity="1" fill-rule="nonzero"/></svg>