<svg xmlns="http://www.w3.org/2000/svg" xmlns:xlink="http://www.w3.org/1999/xlink" width="25" zoomAndPan="magnify" viewBox="0 0 30 30.000001" height="40" preserveAspectRatio="xMidYMid meet" version="1.0"><defs><g/><clipPath id="8c935b4938"><path d="M 1.5 0 L 28.355469 0 L 28.355469 29.03125 L 1.5 29.03125 Z M 1.5 0 " clip-rule="nonzero"/></clipPath><clipPath id="302f0b03d7"><path d="M 7.832031 7.800781 L 22.199219 7.800781 L 22.199219 19.191406 L 7.832031 19.191406 Z M 7.832031 7.800781 " clip-rule="nonzero"/></clipPath><clipPath id="027b3483d1"><path d="M 13.527344 7.800781 L 16.472656 7.800781 C 17.984375 7.800781 19.433594 8.402344 20.5 9.46875 C 21.570312 10.535156 22.167969 11.984375 22.167969 13.496094 C 22.167969 15.003906 21.570312 16.453125 20.5 17.523438 C 19.433594 18.589844 17.984375 19.191406 16.472656 19.191406 L 13.527344 19.191406 C 12.015625 19.191406 10.566406 18.589844 9.5 17.523438 C 8.429688 16.453125 7.832031 15.003906 7.832031 13.496094 C 7.832031 11.984375 8.429688 10.535156 9.5 9.46875 C 10.566406 8.402344 12.015625 7.800781 13.527344 7.800781 Z M 13.527344 7.800781 " clip-rule="nonzero"/></clipPath></defs><g clip-path="url(#8c935b4938)"><path fill="#aab4c4" d="M 26.21875 15.386719 C 24.511719 22.0625 20.734375 26.316406 14.996094 28.03125 C 9.265625 26.316406 5.492188 22.074219 3.777344 15.414062 C 2.703125 11.242188 2.816406 7.363281 2.894531 6.105469 C 8.25 5.9375 12.722656 2.777344 14.996094 1.125 C 17.257812 2.761719 21.742188 5.933594 27.097656 6.105469 C 27.175781 7.359375 27.289062 11.21875 26.21875 15.386719 Z M 28.023438 5.582031 C 28 5.335938 27.792969 5.148438 27.546875 5.148438 C 22.199219 5.148438 17.800781 1.964844 15.433594 0.253906 L 15.277344 0.140625 C 15.109375 0.0195312 14.882812 0.0195312 14.714844 0.140625 L 14.589844 0.230469 C 12.394531 1.824219 7.820312 5.148438 2.445312 5.148438 C 2.199219 5.148438 1.992188 5.335938 1.964844 5.582031 C 1.945312 5.777344 1.5 10.402344 2.835938 15.628906 C 4.625 22.605469 8.78125 27.230469 14.863281 28.996094 C 14.90625 29.007812 14.949219 29.015625 14.996094 29.015625 C 15.042969 29.015625 15.085938 29.007812 15.128906 28.996094 C 21.207031 27.230469 25.367188 22.605469 27.152344 15.628906 C 28.492188 10.402344 28.046875 5.777344 28.023438 5.582031 " fill-opacity="1" fill-rule="nonzero"/></g><path fill="#aab4c4" d="M 20.316406 10.765625 L 14.136719 18.808594 C 13.976562 19.019531 13.734375 19.152344 13.472656 19.183594 C 13.4375 19.1875 13.398438 19.191406 13.359375 19.191406 C 13.136719 19.191406 12.917969 19.113281 12.742188 18.96875 L 9.628906 16.421875 C 9.210938 16.078125 9.148438 15.460938 9.492188 15.042969 C 9.832031 14.625 10.449219 14.566406 10.867188 14.90625 L 13.199219 16.816406 L 18.765625 9.574219 C 19.09375 9.144531 19.707031 9.0625 20.136719 9.394531 C 20.5625 9.722656 20.644531 10.335938 20.316406 10.765625 Z M 14.996094 3.007812 C 12.90625 4.511719 9.105469 7.082031 4.535156 7.363281 C 4.414062 10.566406 4.632812 23 14.996094 26.203125 C 25.355469 23 25.574219 10.566406 25.457031 7.363281 C 20.882812 7.078125 17.074219 4.503906 14.996094 3.007812 " fill-opacity="1" fill-rule="nonzero"/><g clip-path="url(#302f0b03d7)"><g clip-path="url(#027b3483d1)"><path fill="#aab4c4" d="M 7.832031 7.800781 L 22.15625 7.800781 L 22.15625 19.191406 L 7.832031 19.191406 Z M 7.832031 7.800781 " fill-opacity="1" fill-rule="nonzero"/></g></g><g fill="#072958" fill-opacity="1"><g transform="translate(10.574048, 18.223934)"><g><path d="M 4.578125 0.890625 C 4.265625 0.890625 4.109375 0.785156 4.109375 0.578125 L 4.109375 0.203125 C 3.503906 0.148438 2.941406 0 2.421875 -0.25 C 1.898438 -0.507812 1.445312 -0.882812 1.0625 -1.375 C 0.914062 -1.601562 0.867188 -1.816406 0.921875 -2.015625 C 0.972656 -2.210938 1.109375 -2.375 1.328125 -2.5 C 1.546875 -2.632812 1.742188 -2.675781 1.921875 -2.625 C 2.109375 -2.570312 2.285156 -2.441406 2.453125 -2.234375 C 2.671875 -2.015625 2.914062 -1.832031 3.1875 -1.6875 C 3.457031 -1.550781 3.765625 -1.460938 4.109375 -1.421875 L 4.109375 -4.375 C 3.191406 -4.570312 2.460938 -4.882812 1.921875 -5.3125 C 1.390625 -5.75 1.125 -6.398438 1.125 -7.265625 C 1.125 -8.078125 1.390625 -8.75 1.921875 -9.28125 C 2.460938 -9.8125 3.191406 -10.109375 4.109375 -10.171875 L 4.109375 -10.578125 C 4.109375 -10.742188 4.15625 -10.847656 4.25 -10.890625 C 4.351562 -10.941406 4.460938 -10.96875 4.578125 -10.96875 C 4.890625 -10.96875 5.046875 -10.835938 5.046875 -10.578125 L 5.046875 -10.140625 C 5.617188 -10.078125 6.125 -9.929688 6.5625 -9.703125 C 7 -9.472656 7.375 -9.195312 7.6875 -8.875 C 7.863281 -8.664062 7.929688 -8.460938 7.890625 -8.265625 C 7.859375 -8.066406 7.738281 -7.890625 7.53125 -7.734375 C 7.320312 -7.566406 7.125 -7.5 6.9375 -7.53125 C 6.75 -7.570312 6.5625 -7.6875 6.375 -7.875 C 6.1875 -8.03125 5.988281 -8.171875 5.78125 -8.296875 C 5.570312 -8.421875 5.328125 -8.507812 5.046875 -8.5625 L 5.046875 -5.796875 C 6.148438 -5.546875 6.945312 -5.164062 7.4375 -4.65625 C 7.9375 -4.144531 8.1875 -3.507812 8.1875 -2.75 C 8.1875 -1.863281 7.898438 -1.171875 7.328125 -0.671875 C 6.765625 -0.171875 6.003906 0.117188 5.046875 0.203125 L 5.046875 0.578125 C 5.046875 0.679688 4.992188 0.757812 4.890625 0.8125 C 4.785156 0.863281 4.679688 0.890625 4.578125 0.890625 Z M 5.046875 -1.390625 C 5.546875 -1.441406 5.90625 -1.578125 6.125 -1.796875 C 6.34375 -2.023438 6.453125 -2.328125 6.453125 -2.703125 C 6.453125 -2.910156 6.414062 -3.09375 6.34375 -3.25 C 6.28125 -3.414062 6.148438 -3.566406 5.953125 -3.703125 C 5.753906 -3.847656 5.453125 -3.976562 5.046875 -4.09375 Z M 4.109375 -6.078125 L 4.109375 -8.59375 C 3.722656 -8.550781 3.410156 -8.425781 3.171875 -8.21875 C 2.941406 -8.007812 2.828125 -7.71875 2.828125 -7.34375 C 2.828125 -7.09375 2.90625 -6.863281 3.0625 -6.65625 C 3.21875 -6.445312 3.566406 -6.253906 4.109375 -6.078125 Z M 4.109375 -6.078125 "/></g></g></g></svg>