<svg xmlns="http://www.w3.org/2000/svg" xmlns:xlink="http://www.w3.org/1999/xlink" width="40" zoomAndPan="magnify" viewBox="0 0 30 30.000001" height="40" preserveAspectRatio="xMidYMid meet" version="1.0"><defs><clipPath id="2c71aab006"><path d="M 1.59375 4.695312 L 14 4.695312 L 14 24.292969 L 1.59375 24.292969 Z M 1.59375 4.695312 " clip-rule="nonzero"/></clipPath><clipPath id="32b5435bf8"><path d="M 16 4.695312 L 28.449219 4.695312 L 28.449219 24.292969 L 16 24.292969 Z M 16 4.695312 " clip-rule="nonzero"/></clipPath></defs><g clip-path="url(#2c71aab006)"><path fill="#aab4c4" d="M 11.175781 12.03125 L 6.847656 12.03125 C 6.46875 12.03125 6.167969 11.71875 6.171875 11.335938 C 6.1875 9.304688 7.515625 7.863281 9.535156 6.550781 C 9.628906 6.492188 9.683594 6.398438 9.683594 6.296875 L 9.683594 5.074219 C 9.683594 4.847656 9.421875 4.695312 9.191406 4.789062 L 5.667969 6.21875 C 3.339844 7.164062 1.734375 9.191406 1.628906 11.496094 C 1.625 11.578125 1.625 11.664062 1.625 11.75 L 1.625 14.371094 C 1.613281 14.457031 1.609375 14.546875 1.609375 14.636719 L 1.609375 21.597656 C 1.609375 23.035156 2.777344 24.203125 4.214844 24.203125 L 11.175781 24.203125 C 12.613281 24.203125 13.777344 23.035156 13.777344 21.597656 L 13.777344 14.636719 C 13.777344 13.199219 12.613281 12.03125 11.175781 12.03125 " fill-opacity="1" fill-rule="nonzero"/></g><g clip-path="url(#32b5435bf8)"><path fill="#aab4c4" d="M 25.964844 12.03125 L 21.636719 12.03125 C 21.257812 12.03125 20.957031 11.71875 20.960938 11.335938 C 20.976562 9.304688 22.304688 7.863281 24.324219 6.550781 C 24.417969 6.492188 24.472656 6.398438 24.472656 6.296875 L 24.472656 5.074219 C 24.472656 4.847656 24.210938 4.695312 23.980469 4.789062 L 20.457031 6.21875 C 18.128906 7.164062 16.523438 9.191406 16.417969 11.496094 C 16.414062 11.578125 16.410156 11.664062 16.410156 11.75 L 16.410156 14.371094 C 16.402344 14.457031 16.398438 14.546875 16.398438 14.636719 L 16.398438 21.597656 C 16.398438 23.035156 17.566406 24.203125 19.003906 24.203125 L 25.964844 24.203125 C 27.402344 24.203125 28.566406 23.035156 28.566406 21.597656 L 28.566406 14.636719 C 28.566406 13.199219 27.402344 12.03125 25.964844 12.03125 " fill-opacity="1" fill-rule="nonzero"/></g></svg>