<svg xmlns="http://www.w3.org/2000/svg" xmlns:xlink="http://www.w3.org/1999/xlink" width="40" zoomAndPan="magnify" viewBox="0 0 30 30.000001" height="40" preserveAspectRatio="xMidYMid meet" version="1.0"><defs><clipPath id="a0ce570289"><path d="M 1.449219 3.863281 L 28.304688 3.863281 L 28.304688 24.910156 L 1.449219 24.910156 Z M 1.449219 3.863281 " clip-rule="nonzero"/></clipPath></defs><g clip-path="url(#a0ce570289)"><path fill="#aab4c4" d="M 21.769531 18.378906 L 21.769531 22.871094 C 21.769531 23.195312 21.609375 23.5 21.339844 23.679688 C 21.339844 23.679688 19.175781 25.15625 15 25.15625 C 10.824219 25.15625 8.660156 23.679688 8.660156 23.679688 C 8.390625 23.5 8.230469 23.195312 8.230469 22.871094 L 8.230469 18.378906 C 8.230469 15.710938 10.390625 13.546875 13.058594 13.546875 L 16.941406 13.546875 C 19.609375 13.546875 21.769531 15.710938 21.769531 18.378906 Z M 15 3.875 C 17.199219 3.875 18.988281 5.402344 18.988281 7.871094 C 18.988281 9.257812 18.378906 10.644531 17.453125 11.53125 C 16.769531 12.1875 15.914062 12.582031 15 12.582031 C 14.085938 12.582031 13.234375 12.1875 12.546875 11.53125 C 11.621094 10.644531 11.011719 9.257812 11.011719 7.871094 C 11.011719 5.402344 12.800781 3.875 15 3.875 Z M 23.222656 6.171875 C 25.003906 6.171875 26.453125 7.410156 26.453125 9.410156 C 26.453125 10.515625 25.96875 11.621094 25.230469 12.332031 C 24.667969 12.867188 23.96875 13.183594 23.222656 13.183594 C 22.476562 13.183594 21.777344 12.867188 21.214844 12.332031 C 20.476562 11.621094 19.992188 10.515625 19.992188 9.410156 C 19.992188 7.410156 21.4375 6.171875 23.222656 6.171875 Z M 6.777344 6.171875 C 8.5625 6.171875 10.007812 7.410156 10.007812 9.410156 C 10.007812 10.515625 9.523438 11.621094 8.785156 12.332031 C 8.222656 12.867188 7.523438 13.183594 6.777344 13.183594 C 6.03125 13.183594 5.332031 12.867188 4.769531 12.332031 C 4.03125 11.621094 3.546875 10.515625 3.546875 9.410156 C 3.546875 7.410156 4.996094 6.171875 6.777344 6.171875 Z M 6.3125 23.214844 C 3.398438 23.109375 1.890625 22.074219 1.890625 22.074219 C 1.621094 21.894531 1.457031 21.589844 1.457031 21.265625 L 1.457031 18.863281 C 1.457031 16.195312 3.621094 14.03125 6.289062 14.03125 L 7.265625 14.03125 C 7.464844 14.03125 7.65625 14.042969 7.847656 14.066406 C 6.878906 15.238281 6.292969 16.738281 6.292969 18.378906 L 6.292969 22.871094 C 6.292969 22.988281 6.300781 23.101562 6.3125 23.214844 Z M 22.152344 14.066406 C 22.34375 14.042969 22.539062 14.03125 22.734375 14.03125 L 23.710938 14.03125 C 26.378906 14.03125 28.542969 16.195312 28.542969 18.863281 L 28.542969 21.265625 C 28.542969 21.589844 28.378906 21.894531 28.109375 22.074219 C 28.109375 22.074219 26.605469 23.109375 23.6875 23.214844 C 23.699219 23.101562 23.707031 22.988281 23.707031 22.871094 L 23.707031 18.378906 C 23.707031 16.738281 23.125 15.238281 22.152344 14.066406 Z M 22.152344 14.066406 " fill-opacity="1" fill-rule="evenodd"/></g></svg>