<svg xmlns="http://www.w3.org/2000/svg" xmlns:xlink="http://www.w3.org/1999/xlink" width="610" zoomAndPan="magnify" viewBox="0 0 457.5 213.75" height="285" preserveAspectRatio="xMidYMid meet" version="1.0"><defs><clipPath id="b84701f0f5"><path d="M 78.429688 32.359375 L 401 32.359375 L 401 181.433594 L 78.429688 181.433594 Z M 78.429688 32.359375 " clip-rule="nonzero"/></clipPath></defs><g clip-path="url(#b84701f0f5)"><path fill="#072a59" d="M 400.960938 69.871094 C 400.960938 48.859375 392.066406 32.367188 391.128906 32.632812 C 390.457031 32.824219 394.445312 41.769531 394.230469 54.867188 C 394.132812 61.167969 393.726562 86.3125 378.726562 96.746094 C 370.816406 102.25 359.324219 100.589844 336.320312 97.273438 C 311.703125 93.714844 301.824219 88.378906 281.511719 90.039062 C 273.792969 90.664062 267.519531 92.058594 263.410156 93.140625 C 258.074219 97.609375 252.710938 102.105469 247.375 106.578125 C 251.511719 102.394531 255.644531 98.210938 259.78125 94.050781 C 255.71875 94.363281 251.652344 94.652344 247.589844 94.964844 C 243.625 102.296875 241.195312 109.003906 239.660156 114.796875 C 238.144531 109.003906 235.691406 102.320312 231.726562 94.964844 C 227.664062 94.652344 223.601562 94.363281 219.539062 94.050781 C 223.671875 98.234375 227.808594 102.417969 231.941406 106.578125 C 226.605469 102.105469 221.246094 97.609375 215.90625 93.140625 C 211.796875 92.058594 205.523438 90.664062 197.808594 90.039062 C 177.492188 88.402344 167.613281 93.714844 142.996094 97.273438 C 120.015625 100.589844 108.5 102.25 100.59375 96.746094 C 85.664062 86.3125 85.253906 61.167969 85.160156 54.867188 C 84.941406 41.769531 88.933594 32.824219 88.261719 32.632812 C 87.324219 32.367188 78.429688 48.859375 78.429688 69.871094 C 78.429688 80.15625 78.429688 97.417969 90.785156 109.847656 C 101.480469 120.617188 115.738281 122.011719 123.621094 122.777344 C 133.476562 123.71875 142.78125 121.769531 161.363281 117.875 C 176.507812 114.703125 182.15625 112.347656 192.132812 113.476562 C 201.101562 114.511719 208.121094 117.730469 212.542969 120.207031 C 214.777344 125.90625 217.015625 131.578125 219.273438 137.273438 C 221.027344 138.957031 223.480469 141.601562 225.597656 145.328125 C 232.015625 156.601562 228.191406 165.0625 233.167969 173.933594 C 233.480469 174.464844 233.816406 175.039062 234.203125 175.59375 C 235.453125 177.394531 237.207031 179.296875 239.707031 181.121094 C 242.207031 179.296875 243.960938 177.371094 245.210938 175.59375 C 245.597656 175.015625 245.957031 174.464844 246.246094 173.933594 C 251.246094 165.0625 247.421875 156.601562 253.816406 145.328125 C 255.933594 141.601562 258.386719 138.957031 260.140625 137.273438 C 262.375 131.578125 264.609375 125.90625 266.871094 120.207031 C 271.292969 117.730469 278.3125 114.511719 287.28125 113.476562 C 297.257812 112.347656 302.90625 114.679688 318.050781 117.875 C 336.632812 121.769531 345.910156 123.742188 355.792969 122.777344 C 363.652344 122.035156 377.90625 120.617188 388.628906 109.847656 C 400.984375 97.417969 400.960938 80.15625 400.960938 69.871094 Z M 400.960938 69.871094 " fill-opacity="1" fill-rule="nonzero"/></g></svg>