<svg xmlns="http://www.w3.org/2000/svg" xmlns:xlink="http://www.w3.org/1999/xlink" width="1000" zoomAndPan="magnify" viewBox="0 0 750 299.999988" height="400" preserveAspectRatio="xMidYMid meet" version="1.0"><defs><clipPath id="f7fb52cbc0"><path d="M 52.226562 2.242188 L 697.976562 2.242188 L 697.976562 299.992188 L 52.226562 299.992188 Z M 52.226562 2.242188 " clip-rule="nonzero"/></clipPath></defs><g clip-path="url(#f7fb52cbc0)"><path fill="#072a59" d="M 697.71875 77.316406 C 697.71875 35.269531 679.917969 2.265625 678.042969 2.792969 C 676.695312 3.179688 684.679688 21.078125 684.246094 47.296875 C 684.054688 59.902344 683.238281 110.222656 653.214844 131.105469 C 637.386719 142.121094 614.390625 138.800781 568.351562 132.160156 C 519.085938 125.042969 499.3125 114.363281 458.660156 117.679688 C 443.21875 118.933594 430.660156 121.722656 422.433594 123.886719 C 411.753906 132.835938 401.023438 141.832031 390.34375 150.78125 C 398.617188 142.410156 406.894531 134.039062 415.167969 125.714844 C 407.039062 126.339844 398.90625 126.917969 390.777344 127.542969 C 382.839844 142.21875 377.980469 155.640625 374.902344 167.234375 C 371.871094 155.640625 366.960938 142.265625 359.023438 127.542969 C 350.894531 126.917969 342.761719 126.339844 334.632812 125.714844 C 342.90625 134.085938 351.183594 142.457031 359.457031 150.78125 C 348.777344 141.832031 338.046875 132.835938 327.367188 123.886719 C 319.140625 121.722656 306.585938 118.933594 291.140625 117.679688 C 250.488281 114.410156 230.714844 125.042969 181.449219 132.160156 C 135.457031 138.800781 112.414062 142.121094 96.585938 131.105469 C 66.707031 110.222656 65.890625 59.902344 65.699219 47.296875 C 65.265625 21.078125 73.25 3.179688 71.90625 2.792969 C 70.027344 2.265625 52.226562 35.269531 52.226562 77.316406 C 52.226562 97.90625 52.226562 132.449219 76.957031 157.324219 C 98.363281 178.875 126.894531 181.667969 142.675781 183.207031 C 162.398438 185.082031 181.019531 181.1875 218.207031 173.390625 C 248.515625 167.042969 259.820312 162.328125 279.789062 164.589844 C 297.734375 166.65625 311.78125 173.105469 320.632812 178.058594 C 325.105469 189.460938 329.582031 200.816406 334.105469 212.21875 C 337.617188 215.585938 342.523438 220.875 346.757812 228.332031 C 359.601562 250.898438 351.953125 267.832031 361.910156 285.585938 C 362.535156 286.644531 363.210938 287.796875 363.980469 288.902344 C 366.480469 292.511719 369.992188 296.3125 374.996094 299.96875 C 380 296.3125 383.511719 292.464844 386.015625 288.902344 C 386.785156 287.75 387.503906 286.644531 388.082031 285.585938 C 398.089844 267.832031 390.441406 250.898438 403.238281 228.332031 C 407.472656 220.875 412.378906 215.585938 415.890625 212.21875 C 420.363281 200.816406 424.839844 189.460938 429.359375 178.058594 C 438.214844 173.105469 452.261719 166.65625 470.207031 164.589844 C 490.171875 162.328125 501.476562 166.992188 531.789062 173.390625 C 568.976562 181.1875 587.546875 185.132812 607.320312 183.207031 C 623.050781 181.714844 651.582031 178.875 673.039062 157.324219 C 697.765625 132.449219 697.71875 97.90625 697.71875 77.316406 Z M 697.71875 77.316406 " fill-opacity="1" fill-rule="nonzero"/></g></svg>