<svg xmlns="http://www.w3.org/2000/svg" xmlns:xlink="http://www.w3.org/1999/xlink" width="40" zoomAndPan="magnify" viewBox="0 0 30 30.000001" height="40" preserveAspectRatio="xMidYMid meet" version="1.0"><defs><clipPath id="23ba177d0a"><path d="M 1.828125 1.34375 L 27.957031 1.34375 L 27.957031 27.472656 L 1.828125 27.472656 Z M 1.828125 1.34375 " clip-rule="nonzero"/></clipPath></defs><g clip-path="url(#23ba177d0a)"><path fill="#fd3e4a" d="M 28.171875 14.515625 C 28.171875 21.792969 22.273438 27.6875 15 27.6875 C 7.726562 27.6875 1.828125 21.792969 1.828125 14.515625 C 1.828125 7.242188 7.726562 1.34375 15 1.34375 C 22.273438 1.34375 28.171875 7.242188 28.171875 14.515625 " fill-opacity="1" fill-rule="nonzero"/></g><path fill="#ffffff" d="M 21.5 8.019531 C 20.863281 7.382812 19.828125 7.382812 19.191406 8.019531 L 15 12.210938 L 10.808594 8.019531 C 10.171875 7.382812 9.136719 7.382812 8.5 8.019531 C 7.863281 8.65625 7.863281 9.6875 8.5 10.324219 L 12.695312 14.515625 L 8.5 18.707031 C 7.863281 19.34375 7.863281 20.378906 8.5 21.015625 C 9.136719 21.652344 10.171875 21.652344 10.808594 21.015625 L 15 16.824219 L 19.191406 21.015625 C 19.828125 21.652344 20.863281 21.652344 21.5 21.015625 C 22.136719 20.378906 22.136719 19.34375 21.5 18.707031 L 17.304688 14.515625 L 21.5 10.324219 C 22.136719 9.6875 22.136719 8.65625 21.5 8.019531 " fill-opacity="1" fill-rule="nonzero"/></svg>