<svg xmlns="http://www.w3.org/2000/svg" xmlns:xlink="http://www.w3.org/1999/xlink" width="40" zoomAndPan="magnify" viewBox="0 0 30 30.000001" height="40" preserveAspectRatio="xMidYMid meet" version="1.0"><defs><clipPath id="ab36e5469e"><path d="M 2.082031 1.597656 L 28.210938 1.597656 L 28.210938 27.726562 L 2.082031 27.726562 Z M 2.082031 1.597656 " clip-rule="nonzero"/></clipPath></defs><g clip-path="url(#ab36e5469e)"><path fill="#39b54a" d="M 15.144531 1.597656 C 7.929688 1.597656 2.082031 7.445312 2.082031 14.660156 C 2.082031 21.875 7.929688 27.726562 15.144531 27.726562 C 22.359375 27.726562 28.210938 21.875 28.210938 14.660156 C 28.210938 7.445312 22.359375 1.597656 15.144531 1.597656 Z M 22.496094 12.644531 L 14.855469 20.289062 C 14.484375 20.65625 13.988281 20.863281 13.464844 20.863281 C 12.953125 20.863281 12.453125 20.65625 12.085938 20.289062 L 8.269531 16.46875 C 7.5 15.703125 7.5 14.46875 8.269531 13.703125 C 9.035156 12.945312 10.261719 12.945312 11.027344 13.703125 L 13.464844 16.148438 L 19.730469 9.886719 C 20.496094 9.117188 21.730469 9.117188 22.496094 9.886719 C 23.257812 10.644531 23.257812 11.878906 22.496094 12.644531 Z M 22.496094 12.644531 " fill-opacity="1" fill-rule="nonzero"/></g><path fill="#ffffff" d="M 22.496094 12.644531 L 14.855469 20.289062 C 14.484375 20.65625 13.988281 20.863281 13.464844 20.863281 C 12.953125 20.863281 12.453125 20.65625 12.085938 20.289062 L 8.269531 16.46875 C 7.5 15.703125 7.5 14.46875 8.269531 13.703125 C 9.035156 12.945312 10.261719 12.945312 11.027344 13.703125 L 13.464844 16.148438 L 19.730469 9.886719 C 20.496094 9.117188 21.730469 9.117188 22.496094 9.886719 C 23.257812 10.644531 23.257812 11.878906 22.496094 12.644531 Z M 22.496094 12.644531 " fill-opacity="1" fill-rule="nonzero"/></svg>