<svg xmlns="http://www.w3.org/2000/svg" xmlns:xlink="http://www.w3.org/1999/xlink" width="610" zoomAndPan="magnify" viewBox="0 0 457.5 213.75" height="285" preserveAspectRatio="xMidYMid meet" version="1.0"><path stroke-linecap="butt" transform="matrix(0.423116, 0, 0, 0.423116, 2.264894, -48.291265)" fill-opacity="1" fill="#DD7F03" fill-rule="evenodd" stroke-linejoin="miter" d="M 1026.297078 316.038366 C 1017.628138 319.343457 1008.977663 322.685477 1000.299491 325.953639 C 981.604494 333.025426 962.900264 340.023356 942.912773 342.792985 C 918.38309 346.190397 893.890336 345.221027 869.332956 343.30075 C 858.005173 342.414469 846.640461 342.082113 835.284981 341.491259 C 814.051156 340.383407 795.27307 347.113607 778.009048 359.059941 C 760.514223 371.163221 743.019398 383.275732 725.238378 394.945104 C 710.106971 404.878841 693.590748 411.682896 675.15425 410.648902 C 665.617493 410.122672 656.191521 407.4269 646.673229 405.700497 C 654.20662 415.403432 662.109296 425.586435 670.021203 435.769439 C 669.651919 436.360293 669.291868 436.951147 668.922584 437.542002 C 666.328364 437.892821 663.641824 438.843727 661.15839 438.474443 C 646.830174 436.360293 632.520423 434.126126 618.284529 431.531906 C 610.45571 430.100931 606.282802 423.509213 601.463647 418.053044 C 599.331033 415.625002 597.567702 412.873837 594.678056 408.977892 C 593.413258 417.148298 592.185389 423.869265 591.372965 430.636393 C 588.991084 450.309992 582.427062 468.284886 570.970029 484.58877 C 563.362781 495.418021 563.768993 507.687478 566.326284 520.086185 C 567.951133 527.979629 569.825249 535.873072 570.646906 543.868069 C 572.271755 559.830365 559.26373 573.678511 543.172184 573.743136 C 536.931286 573.770832 530.690388 573.807761 524.458722 573.724672 C 507.083914 573.493869 493.660445 558.22398 496.125415 540.996886 C 497.473301 531.589379 500.058288 522.348049 501.480031 512.940542 C 503.326451 500.809566 500.519893 489.684888 493.004966 479.769616 C 482.231108 465.561418 478.224378 448.851321 475.740943 431.642691 C 474.734645 424.663226 473.829899 417.665296 472.168122 410.131904 C 457.165963 437.532769 430.420577 435.898688 405.466217 438.382122 C 403.001247 438.622157 400.397796 437.569698 395.901764 436.766505 C 404.921524 425.374097 412.814967 415.412664 420.70841 405.441999 C 420.579161 405.118875 420.449912 404.78652 420.320662 404.463396 C 418.797366 404.989626 417.255606 405.469695 415.750774 406.060549 C 394.747752 414.332508 374.123246 412.763052 354.81893 401.712231 C 337.499515 391.806191 320.041619 381.669348 304.393214 369.409122 C 272.884065 344.722493 238.254467 337.078317 199.018053 342.811449 C 144.844105 350.723357 93.144359 340.872709 44.094225 316.749238 C 43.475674 316.435347 42.903284 316.019902 42.543232 314.64432 C 50.261266 316.139919 57.988532 317.617055 65.697333 319.149583 C 90.910191 324.190308 116.243067 329.009463 142.056011 327.495399 C 160.123226 326.424476 178.550493 325.482802 195.999157 321.199109 C 234.866288 311.643888 270.649897 318.106356 305.639547 335.988929 C 324.685364 345.71956 344.202018 354.942425 364.337223 362.060372 C 399.409961 374.459079 432.876315 369.326033 464.080804 348.747688 C 471.189519 344.057782 479.110659 340.374175 487.041031 337.17987 C 498.590385 332.536125 510.462862 328.677108 522.261483 324.651913 C 529.601 322.159247 537.060535 322.297728 544.446213 324.670378 C 558.054325 329.064856 571.690133 333.367013 585.224388 337.983062 C 588.815674 339.201699 592.434656 340.928101 595.425855 343.217661 C 634.449932 373.148122 676.105156 376.139321 720.077636 355.6256 C 737.193945 347.649068 754.107147 339.229395 771.251152 331.317488 C 803.692743 316.352258 837.316042 312.594794 872.102586 321.540696 C 906.898361 330.486599 941.897243 329.406444 976.942285 323.627151 C 991.04893 321.300662 1005.035557 318.272534 1019.077578 315.585994 C 1021.339442 315.142853 1023.610538 314.764337 1025.881634 314.348893 C 1026.020115 314.91205 1026.158597 315.475208 1026.297078 316.038366 Z M 1026.297078 316.038366 " stroke="#794502" stroke-width="1" stroke-opacity="1" stroke-miterlimit="10"/></svg>